<svg width="25" height="28" viewBox="0 0 25 28" fill="none" xmlns="http://www.w3.org/2000/svg">
<path d="M3.78929 0.380371C3.54876 0.380371 3.34259 0.414732 3.13642 0.483455C1.79633 0.758346 0.731125 1.82355 0.456234 3.16364C0.353149 3.36981 0.353149 3.57598 0.353149 3.81651V22.7153C0.353149 25.5673 2.65536 27.8695 5.50736 27.8695H24.4061V24.4333H5.50736C4.54524 24.4333 3.78929 23.6774 3.78929 22.7153C3.78929 21.7532 4.54524 20.9972 5.50736 20.9972H24.4061V2.09844C24.4061 1.13632 23.6502 0.380371 22.688 0.380371H20.97V10.6888L17.5338 7.25265L14.0977 10.6888V0.380371H3.78929Z" fill="#E55933"/>
</svg>
