<svg width="29" height="29" viewBox="0 0 29 29" fill="none" xmlns="http://www.w3.org/2000/svg">
<path d="M12.7569 0.772785C6.09764 0.772785 0.680542 6.18988 0.680542 12.8491C0.680542 19.5083 6.09764 24.9254 12.7569 24.9254C14.7926 24.9254 16.7938 24.4424 18.4845 23.5108C18.6199 23.6737 18.7701 23.8239 18.933 23.9593L22.3834 27.4097C22.702 27.7682 23.0905 28.0578 23.5251 28.2607C23.9597 28.4636 24.4311 28.5756 24.9105 28.5897C25.3899 28.6038 25.8671 28.5198 26.3129 28.3428C26.7587 28.1658 27.1635 27.8995 27.5027 27.5604C27.8418 27.2213 28.108 26.8164 28.285 26.3706C28.462 25.9249 28.546 25.4477 28.5319 24.9683C28.5178 24.4889 28.4059 24.0174 28.203 23.5828C28.0001 23.1483 27.7105 22.7598 27.352 22.4412L23.9016 18.9908C23.7335 18.8226 23.5485 18.6723 23.3495 18.5422C24.2811 16.8515 24.8677 14.8848 24.8677 12.8146C24.8677 6.15538 19.4506 0.738281 12.7914 0.738281L12.7569 0.772785ZM12.7569 4.22316C17.5529 4.22316 21.3828 8.05308 21.3828 12.8491C21.3828 15.1264 20.5547 17.2311 19.1056 18.7838C19.0711 18.8183 19.0366 18.8528 19.002 18.8873C18.8391 19.0227 18.6889 19.1728 18.5535 19.3358C17.0353 20.716 14.9651 21.5096 12.7224 21.5096C7.92634 21.5096 4.09642 17.6796 4.09642 12.8836C4.09642 8.08759 7.92634 4.25767 12.7224 4.25767L12.7569 4.22316Z" fill="#E55933"/>
</svg>
