<svg width="27" height="23" viewBox="0 0 27 23" fill="none" xmlns="http://www.w3.org/2000/svg">
<path d="M2.18836 0.317871C1.29305 0.317871 0.5896 1.02132 0.5896 1.91663C0.5896 2.81193 1.29305 3.51539 2.18836 3.51539C3.08366 3.51539 3.78712 2.81193 3.78712 1.91663C3.78712 1.02132 3.08366 0.317871 2.18836 0.317871ZM6.98463 0.317871V3.51539H26.1697V0.317871H6.98463ZM2.18836 6.71291C1.29305 6.71291 0.5896 7.41636 0.5896 8.31167C0.5896 9.20697 1.29305 9.91042 2.18836 9.91042C3.08366 9.91042 3.78712 9.20697 3.78712 8.31167C3.78712 7.41636 3.08366 6.71291 2.18836 6.71291ZM6.98463 6.71291V9.91042H26.1697V6.71291H6.98463ZM2.18836 13.1079C1.29305 13.1079 0.5896 13.8114 0.5896 14.7067C0.5896 15.602 1.29305 16.3055 2.18836 16.3055C3.08366 16.3055 3.78712 15.602 3.78712 14.7067C3.78712 13.8114 3.08366 13.1079 2.18836 13.1079ZM6.98463 13.1079V16.3055H26.1697V13.1079H6.98463ZM2.18836 19.503C1.29305 19.503 0.5896 20.2064 0.5896 21.1017C0.5896 21.997 1.29305 22.7005 2.18836 22.7005C3.08366 22.7005 3.78712 21.997 3.78712 21.1017C3.78712 20.2064 3.08366 19.503 2.18836 19.503ZM6.98463 19.503V22.7005H26.1697V19.503H6.98463Z" fill="#E55933"/>
</svg>
