<svg width="28" height="28" viewBox="0 0 28 28" fill="none" xmlns="http://www.w3.org/2000/svg">
<path d="M12.2638 0.691772C9.02336 0.691772 6.11696 2.02805 4.01232 4.13268L13.9342 14.0545V0.791993C13.3997 0.725179 12.8317 0.691772 12.2638 0.691772ZM17.2749 4.2329V15.6247L8.18818 24.7113C10.226 26.3817 12.7649 27.4173 15.6045 27.4173C22.052 27.4173 27.2969 22.1724 27.2969 15.7249C27.2969 9.84526 22.9206 5.06808 17.2749 4.2329ZM3.61144 8.60921C1.74065 10.4132 0.571411 12.9187 0.571411 15.7249C0.571411 18.9319 2.10813 21.7047 4.44661 23.5421L11.5623 16.4264L3.61144 8.60921Z" fill="#E55933"/>
</svg>
