<svg width="40" height="40" viewBox="0 0 40 40" fill="none" xmlns="http://www.w3.org/2000/svg">
<path d="M17.9082 0C13.1461 0 8.87504 1.96372 5.78218 5.05659L20.3628 19.6372V0.147279C19.5773 0.0490931 18.7428 0 17.9082 0ZM25.2721 5.20387V21.9446L11.9188 35.2979C14.9135 37.7526 18.6446 39.2745 22.8175 39.2745C32.2924 39.2745 40.0001 31.5669 40.0001 22.0919C40.0001 13.4515 33.5689 6.4312 25.2721 5.20387ZM5.19306 11.6351C2.44384 14.2861 0.725586 17.9681 0.725586 22.0919C0.725586 26.8048 2.98387 30.8796 6.42039 33.5797L16.8772 23.1229L5.19306 11.6351Z" fill="#D9D9D9"/>
</svg>
