<svg width="20" height="20" viewBox="0 0 20 20" fill="none" xmlns="http://www.w3.org/2000/svg">
<path d="M8.62835 0.729986C4.1244 0.729986 0.460571 4.39382 0.460571 8.89776C0.460571 13.4017 4.1244 17.0655 8.62835 17.0655C10.0052 17.0655 11.3587 16.7388 12.5022 16.1087C12.5938 16.219 12.6954 16.3205 12.8056 16.4121L15.1392 18.7458C15.3547 18.9882 15.6175 19.1841 15.9114 19.3213C16.2053 19.4586 16.5242 19.5343 16.8484 19.5438C17.1727 19.5534 17.4954 19.4966 17.7969 19.3768C18.0984 19.2571 18.3722 19.0771 18.6016 18.8477C18.831 18.6183 19.0111 18.3445 19.1308 18.043C19.2505 17.7415 19.3073 17.4188 19.2978 17.0945C19.2882 16.7703 19.2125 16.4514 19.0753 16.1575C18.938 15.8636 18.7422 15.6008 18.4997 15.3853L16.166 13.0517C16.0524 12.9379 15.9272 12.8363 15.7927 12.7483C16.4227 11.6048 16.8195 10.2746 16.8195 8.87443C16.8195 4.37048 13.1556 0.70665 8.65169 0.70665L8.62835 0.729986ZM8.62835 3.06364C11.8721 3.06364 14.4625 5.65399 14.4625 8.89776C14.4625 10.438 13.9024 11.8615 12.9223 12.9116C12.8989 12.935 12.8756 12.9583 12.8523 12.9817C12.742 13.0732 12.6405 13.1748 12.5489 13.285C11.5221 14.2185 10.1219 14.7552 8.60501 14.7552C5.36124 14.7552 2.77089 12.1649 2.77089 8.9211C2.77089 5.67733 5.36124 3.08697 8.60501 3.08697L8.62835 3.06364Z" fill="#E55933"/>
</svg>
