<svg width="19" height="16" viewBox="0 0 19 16" fill="none" xmlns="http://www.w3.org/2000/svg">
<path d="M1.83302 0.422695C1.22749 0.422695 0.751709 0.898474 0.751709 1.50401C0.751709 2.10955 1.22749 2.58532 1.83302 2.58532C2.43856 2.58532 2.91434 2.10955 2.91434 1.50401C2.91434 0.898474 2.43856 0.422695 1.83302 0.422695ZM5.07697 0.422695V2.58532H18.0527V0.422695H5.07697ZM1.83302 4.74795C1.22749 4.74795 0.751709 5.22373 0.751709 5.82927C0.751709 6.43481 1.22749 6.91058 1.83302 6.91058C2.43856 6.91058 2.91434 6.43481 2.91434 5.82927C2.91434 5.22373 2.43856 4.74795 1.83302 4.74795ZM5.07697 4.74795V6.91058H18.0527V4.74795H5.07697ZM1.83302 9.07321C1.22749 9.07321 0.751709 9.54899 0.751709 10.1545C0.751709 10.7601 1.22749 11.2358 1.83302 11.2358C2.43856 11.2358 2.91434 10.7601 2.91434 10.1545C2.91434 9.54899 2.43856 9.07321 1.83302 9.07321ZM5.07697 9.07321V11.2358H18.0527V9.07321H5.07697ZM1.83302 13.3985C1.22749 13.3985 0.751709 13.8743 0.751709 14.4798C0.751709 15.0853 1.22749 15.5611 1.83302 15.5611C2.43856 15.5611 2.91434 15.0853 2.91434 14.4798C2.91434 13.8743 2.43856 13.3985 1.83302 13.3985ZM5.07697 13.3985V15.5611H18.0527V13.3985H5.07697Z" fill="#E55933"/>
</svg>
