<svg width="19" height="19" viewBox="0 0 19 19" fill="none" xmlns="http://www.w3.org/2000/svg">
<path d="M7.97123 0.160889C5.77955 0.160889 3.81382 1.06467 2.39036 2.48814L9.10097 9.19874V0.228673C8.73945 0.183483 8.35534 0.160889 7.97123 0.160889ZM11.3604 2.55592V10.2607L5.21469 16.4064C6.59296 17.5362 8.31015 18.2366 10.2307 18.2366C14.5915 18.2366 18.1388 14.6892 18.1388 10.3285C18.1388 6.35182 15.1789 3.12079 11.3604 2.55592ZM2.11922 5.51582C0.853923 6.73593 0.0631104 8.43053 0.0631104 10.3285C0.0631104 12.4976 1.10246 14.3729 2.68409 15.6156L7.49675 10.803L2.11922 5.51582Z" fill="#E55933"/>
</svg>
