<svg width="17" height="19" viewBox="0 0 17 19" fill="none" xmlns="http://www.w3.org/2000/svg">
<path d="M2.59221 0.274441C2.42953 0.274441 2.29009 0.297681 2.15064 0.344161C1.24428 0.530083 0.523831 1.25053 0.337909 2.1569C0.268188 2.29634 0.268188 2.43578 0.268188 2.59846V15.3806C0.268188 17.3095 1.82528 18.8666 3.75422 18.8666H16.5363V16.5426H3.75422C3.10349 16.5426 2.59221 16.0313 2.59221 15.3806C2.59221 14.7298 3.10349 14.2186 3.75422 14.2186H16.5363V1.43645C16.5363 0.785725 16.025 0.274441 15.3743 0.274441H14.2123V7.2465L11.8883 4.92248L9.56427 7.2465V0.274441H2.59221Z" fill="#E55933"/>
</svg>
