<svg width="42" height="48" viewBox="0 0 42 48" fill="none" xmlns="http://www.w3.org/2000/svg">
<path d="M6.04541 0C5.62594 0 5.2664 0.0599243 4.90685 0.179773C2.5698 0.659168 0.712146 2.51682 0.232751 4.85387C0.0529785 5.21342 0.0529785 5.57296 0.0529785 5.99243V38.9508C0.0529785 43.9245 4.06791 47.9395 9.04163 47.9395H42V41.947H9.04163C7.36375 41.947 6.04541 40.6287 6.04541 38.9508C6.04541 37.2729 7.36375 35.9546 9.04163 35.9546H42V2.99622C42 1.31834 40.6817 0 39.0038 0H36.0076V17.9773L30.0151 11.9849L24.0227 17.9773V0H6.04541Z" fill="#F6F6F6"/>
</svg>
