<svg width="33" height="25" viewBox="0 0 33 25" fill="none" xmlns="http://www.w3.org/2000/svg">
<path d="M1.7578 0.0083656C1.21108 0.0958399 0.721507 0.396913 0.396775 0.845352C0.0720434 1.29379 -0.0612464 1.85286 0.0262279 2.39958C0.113702 2.94629 0.414775 3.43587 0.863215 3.7606C1.31165 4.08533 1.87073 4.21862 2.41744 4.13114H8.60161L8.97266 5.16184L10.663 10.3153L12.3533 15.4688C12.5182 16.0047 13.2191 16.4995 13.7551 16.4995H28.1848C28.762 16.4995 29.4216 16.0047 29.5866 15.4688L32.926 5.16184C33.0909 4.62588 32.8436 4.13114 32.2664 4.13114H13.9612L12.3946 1.16274C12.2277 0.822034 11.9701 0.533981 11.65 0.330303C11.3299 0.126626 10.9599 0.0152239 10.5805 0.0083656L2.33498 0.0083656C2.21155 -0.00278853 2.08737 -0.00278853 1.96393 0.0083656C1.88155 0.00341381 1.79895 0.00341381 1.71657 0.0083656L1.7578 0.0083656ZM14.7858 20.6223C13.6314 20.6223 12.7244 21.5293 12.7244 22.6837C12.7244 23.838 13.6314 24.745 14.7858 24.745C15.9402 24.745 16.8472 23.838 16.8472 22.6837C16.8472 21.5293 15.9402 20.6223 14.7858 20.6223ZM27.1541 20.6223C25.9997 20.6223 25.0927 21.5293 25.0927 22.6837C25.0927 23.838 25.9997 24.745 27.1541 24.745C28.3085 24.745 29.2155 23.838 29.2155 22.6837C29.2155 21.5293 28.3085 20.6223 27.1541 20.6223Z" fill="#E55933"/>
</svg>
