<svg width="35" height="35" viewBox="0 0 35 35" fill="none" xmlns="http://www.w3.org/2000/svg">
<path d="M9.02821 9.76795C9.41952 5.42626 13.0684 2.02393 17.512 2.02393C21.9555 2.02393 25.6044 5.42626 25.9957 9.76795H26.0304C29.8796 9.76795 33 12.8883 33 16.7376C33 20.5868 29.8796 23.7072 26.0304 23.7072H8.99352C5.1443 23.7072 2.0239 20.5868 2.0239 16.7376C2.0239 12.8883 5.1443 9.76795 8.99352 9.76795H9.02821Z" stroke="#F9E7DB" stroke-width="3" stroke-linecap="round" stroke-linejoin="round"/>
<path d="M9.02821 9.76795C9.41952 5.42626 13.0684 2.02393 17.512 2.02393C21.9555 2.02393 25.6044 5.42626 25.9957 9.76795H26.0304C29.8796 9.76795 33 12.8883 33 16.7376C33 20.5868 29.8796 23.7072 26.0304 23.7072H8.99352C5.1443 23.7072 2.0239 20.5868 2.0239 16.7376C2.0239 12.8883 5.1443 9.76795 8.99352 9.76795H9.02821Z" stroke="#006633" stroke-width="3" stroke-linecap="round" stroke-linejoin="round"/>
<path d="M9.02821 9.76795C9.41952 5.42626 13.0684 2.02393 17.512 2.02393C21.9555 2.02393 25.6044 5.42626 25.9957 9.76795H26.0304C29.8796 9.76795 33 12.8883 33 16.7376C33 20.5868 29.8796 23.7072 26.0304 23.7072H8.99352C5.1443 23.7072 2.0239 20.5868 2.0239 16.7376C2.0239 12.8883 5.1443 9.76795 8.99352 9.76795H9.02821Z" stroke="#E55933" stroke-width="3" stroke-linecap="round" stroke-linejoin="round"/>
<path d="M17.5119 20.6096L21.3839 16.7375" stroke="#F9E7DB" stroke-width="3" stroke-linecap="round" stroke-linejoin="round"/>
<path d="M17.5119 20.6096L21.3839 16.7375" stroke="#006633" stroke-width="3" stroke-linecap="round" stroke-linejoin="round"/>
<path d="M17.5119 20.6096L21.3839 16.7375" stroke="#E55933" stroke-width="3" stroke-linecap="round" stroke-linejoin="round"/>
<path d="M17.5119 18.2863L12.8655 13.6399" stroke="#F9E7DB" stroke-width="3" stroke-linecap="round" stroke-linejoin="round"/>
<path d="M17.5119 18.2863L12.8655 13.6399" stroke="#006633" stroke-width="3" stroke-linecap="round" stroke-linejoin="round"/>
<path d="M17.5119 18.2863L12.8655 13.6399" stroke="#E55933" stroke-width="3" stroke-linecap="round" stroke-linejoin="round"/>
<path d="M17.5119 32.9999V12.8655" stroke="#F9E7DB" stroke-width="3" stroke-linecap="round" stroke-linejoin="round"/>
<path d="M17.5119 32.9999V12.8655" stroke="#006633" stroke-width="3" stroke-linecap="round" stroke-linejoin="round"/>
<path d="M17.5119 32.9999V12.8655" stroke="#E55933" stroke-width="3" stroke-linecap="round" stroke-linejoin="round"/>
</svg>
