<svg width="34" height="34" viewBox="0 0 34 34" fill="none" xmlns="http://www.w3.org/2000/svg">
<path d="M23.375 0C21.2075 0 19.3375 1.48564 18.19 3.73533C20.1025 6.02747 21.25 9.16854 21.25 12.7765C21.25 14.0075 21.1225 15.1111 20.8675 16.2147C21.675 16.6816 22.4825 17.0212 23.375 17.0212C26.9025 17.0212 29.75 13.201 29.75 8.53184C29.75 3.86267 26.9025 0.0424469 23.375 0.0424469V0ZM10.625 4.24469C7.0975 4.24469 4.25 8.06492 4.25 12.7341C4.25 17.4032 7.0975 21.2235 10.625 21.2235C14.1525 21.2235 17 17.4032 17 12.7341C17 8.06492 14.1525 4.24469 10.625 4.24469ZM30.8125 17.6579C28.985 19.8227 26.4775 21.1386 23.63 21.2235C24.7775 22.8365 25.5 24.789 25.5 26.9114V29.7129H34V22.6667C34 20.4594 32.6825 18.5493 30.8125 17.6155V17.6579ZM3.1875 21.9026C1.3175 22.8365 0 24.7466 0 26.9538V34H21.25V26.9538C21.25 24.7466 19.9325 22.8365 18.0625 21.9026C16.15 24.1523 13.5575 25.4682 10.625 25.4682C7.6925 25.4682 5.1 24.1099 3.1875 21.9026Z" fill="#E55933"/>
</svg>
