<svg width="54" height="59" viewBox="0 0 54 59" fill="none" xmlns="http://www.w3.org/2000/svg">
<path fill-rule="evenodd" clip-rule="evenodd" d="M27 4.97475C14.8565 4.97475 5.01211 14.7457 5.01211 26.7987V44.357C5.01211 45.7307 3.89011 46.8443 2.50605 46.8443C1.122 46.8443 0 45.7307 0 44.357V26.7987C0 11.9982 12.0883 0 27 0C41.9117 0 54 11.9982 54 26.7987V44.357C54 45.7307 52.878 46.8443 51.494 46.8443C50.1099 46.8443 48.9879 45.7307 48.9879 44.357V26.7987C48.9879 14.7457 39.1435 4.97475 27 4.97475ZM27 13.0785C19.3657 13.0785 13.1768 19.2213 13.1768 26.7987V51.1101C13.1768 52.4838 12.0548 53.5975 10.6707 53.5975C9.28665 53.5975 8.16465 52.4838 8.16465 51.1101V26.7987C8.16465 16.4738 16.5975 8.10379 27 8.10379C37.4025 8.10379 45.8354 16.4738 45.8354 26.7987V51.1101C45.8354 52.4838 44.7134 53.5975 43.3293 53.5975C41.9452 53.5975 40.8232 52.4838 40.8232 51.1101V26.7987C40.8232 19.2213 34.6343 13.0785 27 13.0785ZM27 21.1823C23.8749 21.1823 21.3414 23.6969 21.3414 26.7987V55.162C21.3414 56.5357 20.2194 57.6494 18.8354 57.6494C17.4513 57.6494 16.3293 56.5357 16.3293 55.162V26.7987C16.3293 20.9494 21.1068 16.2076 27 16.2076C32.8933 16.2076 37.6707 20.9494 37.6707 26.7987V55.162C37.6707 56.5357 36.5487 57.6494 35.1647 57.6494C33.7806 57.6494 32.6586 56.5357 32.6586 55.162V26.7987C32.6586 23.6969 30.1252 21.1823 27 21.1823ZM27 24.1425C28.3841 24.1425 29.5061 25.2562 29.5061 26.6299V30.3441C29.5061 31.7179 28.3841 32.8315 27 32.8315C25.6159 32.8315 24.4939 31.7179 24.4939 30.3441V26.6299C24.4939 25.2562 25.6159 24.1425 27 24.1425ZM27 36.467C28.3841 36.467 29.5061 37.5807 29.5061 38.9544V56.5126C29.5061 57.8864 28.3841 59 27 59C25.6159 59 24.4939 57.8864 24.4939 56.5126V38.9544C24.4939 37.5807 25.6159 36.467 27 36.467Z" fill="black"/>
</svg>
