<?xml version="1.0" encoding="UTF-8"?>
<svg id="Camada_2" data-name="Camada 2" xmlns="http://www.w3.org/2000/svg" viewBox="0 0 124.75 124.75">
  <defs>
    <style>
      .cls-1 {
        fill: #ab3b45;
        stroke-width: 0px;
      }
    </style>
  </defs>
  <g id="Folder">
    <g>
      <path class="cls-1" d="m114.75,62.38c0,28.88-23.49,52.37-52.38,52.37S10,91.26,10,62.37,33.49,10,62.38,10s52.37,23.49,52.37,52.37h0ZM62.37,0C27.98,0,0,27.98,0,62.38s27.98,62.37,62.38,62.37,62.37-27.98,62.37-62.37h0C124.75,27.98,96.77,0,62.37,0h0Z"/>
      <polygon class="cls-1" points="83.35 25.85 62.38 46.82 41.4 25.85 25.85 41.4 46.82 62.38 25.85 83.35 41.4 98.9 62.38 77.93 83.35 98.9 98.9 83.35 77.93 62.38 98.9 41.4 83.35 25.85 83.35 25.85"/>
    </g>
  </g>
</svg>