<svg width="55" height="53" viewBox="0 0 55 53" fill="none" xmlns="http://www.w3.org/2000/svg">
<path fill-rule="evenodd" clip-rule="evenodd" d="M26.0813 0.445731C26.9355 -0.148577 28.0645 -0.148577 28.9187 0.445731L53.9185 17.8397C54.6623 18.3572 55.0421 19.2089 54.9963 20.0574C54.9986 20.1016 54.9998 20.1459 54.9998 20.1905V47.7229C54.9998 50.4262 52.9615 53 49.9998 53H5.00019C2.03847 53 0.000230985 50.4262 0.000230985 47.7229V20.1905C0.000230985 20.1459 0.00139391 20.1015 0.0036977 20.0574C-0.0420457 19.2089 0.337727 18.3572 1.08153 17.8397L26.0813 0.445731ZM5.00019 24.8411V47.7229C5.00019 47.8408 5.03796 47.916 5.06542 47.9524H49.9346C49.962 47.916 49.9998 47.8408 49.9998 47.7229V24.8411L28.8625 38.7113C28.034 39.255 26.966 39.255 26.1375 38.7113L5.00019 24.8411ZM48.2078 19.9967L27.5 5.58896L6.79218 19.9967L27.5 33.5851L48.2078 19.9967Z" fill="black"/>
</svg>
