<svg width="19" height="22" viewBox="0 0 19 22" fill="none" xmlns="http://www.w3.org/2000/svg">
<path d="M8.14286 0C6.65 0 5.42857 1.22143 5.42857 2.71429H2.71429C1.22143 2.71429 0 3.93571 0 5.42857H19C19 3.93571 17.7786 2.71429 16.2857 2.71429H13.5714C13.5714 1.22143 12.35 0 10.8571 0H8.14286ZM2.71429 8.14286V21.1986C2.71429 21.4971 2.93143 21.7143 3.23 21.7143H15.7971C16.0957 21.7143 16.3129 21.4971 16.3129 21.1986V8.14286H13.5986V17.6429C13.5986 18.4029 13.0014 19 12.2414 19C11.4814 19 10.8843 18.4029 10.8843 17.6429V8.14286H8.17V17.6429C8.17 18.4029 7.57286 19 6.81286 19C6.05286 19 5.45571 18.4029 5.45571 17.6429V8.14286H2.74143H2.71429Z" fill="white"/>
</svg>
