<svg width="29" height="22" viewBox="0 0 29 22" fill="none" xmlns="http://www.w3.org/2000/svg">
<path d="M14.6088 0C5.4375 0 0 10.875 0 10.875C0 10.875 5.4375 21.75 14.6088 21.75C23.5625 21.75 29 10.875 29 10.875C29 10.875 23.5625 0 14.6088 0ZM14.5 3.625C18.5238 3.625 21.75 6.8875 21.75 10.875C21.75 14.8988 18.5238 18.125 14.5 18.125C10.5125 18.125 7.25 14.8988 7.25 10.875C7.25 6.8875 10.5125 3.625 14.5 3.625ZM14.5 7.25C12.5063 7.25 10.875 8.88125 10.875 10.875C10.875 12.8687 12.5063 14.5 14.5 14.5C16.4937 14.5 18.125 12.8687 18.125 10.875C18.125 10.5125 17.98 10.1862 17.9075 9.86C17.6175 10.44 17.0375 10.875 16.3125 10.875C15.2975 10.875 14.5 10.0775 14.5 9.0625C14.5 8.3375 14.935 7.7575 15.515 7.4675C15.1888 7.35875 14.8625 7.25 14.5 7.25Z" fill="#438A64"/>
</svg>
