<svg width="29" height="25" viewBox="0 0 29 25" fill="none" xmlns="http://www.w3.org/2000/svg">
<path d="M14.6088 1C5.4375 1 0 11.875 0 11.875C0 11.875 5.4375 22.75 14.6088 22.75C23.5625 22.75 29 11.875 29 11.875C29 11.875 23.5625 1 14.6088 1ZM14.5 4.625C18.5238 4.625 21.75 7.8875 21.75 11.875C21.75 15.8988 18.5238 19.125 14.5 19.125C10.5125 19.125 7.25 15.8988 7.25 11.875C7.25 7.8875 10.5125 4.625 14.5 4.625ZM14.5 8.25C12.5063 8.25 10.875 9.88125 10.875 11.875C10.875 13.8687 12.5063 15.5 14.5 15.5C16.4937 15.5 18.125 13.8687 18.125 11.875C18.125 11.5125 17.98 11.1862 17.9075 10.86C17.6175 11.44 17.0375 11.875 16.3125 11.875C15.2975 11.875 14.5 11.0775 14.5 10.0625C14.5 9.3375 14.935 8.7575 15.515 8.4675C15.1888 8.35875 14.8625 8.25 14.5 8.25Z" fill="#438A64"/>
<rect x="1.93506" width="34.1469" height="2.9965" transform="rotate(40.2252 1.93506 0)" fill="#438A64"/>
</svg>
