<?xml version="1.0" encoding="UTF-8"?>
<svg id="Camada_2" data-name="Camada 2" xmlns="http://www.w3.org/2000/svg" viewBox="0 0 430.59 430.59">
  <defs>
    <style>
      .cls-1 {
        fill: #e55933;
      }

      .cls-1, .cls-2 {
        stroke-width: 0px;
      }

      .cls-2 {
        fill: #fff;
      }
    </style>
  </defs>
  <g id="Camada_1-2" data-name="Camada 1">
    <g>
      <circle class="cls-1" cx="215.29" cy="215.29" r="215.29"/>
      <g id="simbol">
        <path class="cls-2" d="m237.68,285.19c-2.4.65-4.85,1.06-7.32,1.06,2.48-.26,4.92-.62,7.32-1.06Z"/>
        <path class="cls-2" d="m311.94,155.14c-.89-9.03-5.18-17.09-11.59-22.89-3.71-3.38-8.16-6-13.06-7.63-3.66-1.23-7.57-1.88-11.64-1.88h-66.46c-12.28,0-23.92,2.73-34.31,7.58-4.3,2-8.36,4.35-12.2,7.05-4.8-2.68-9.81-5.03-15.02-7-.99-.38-1.98-.75-3-1.1-.81-.28-1.63-.55-2.44-.83-4.27-1.4-8.64-2.55-13.09-3.45-3.54-.71-7.14-1.24-10.79-1.62,4.38,7.07,7.53,15.5,9.48,23.12.62,2.64.71,3.16.95,5.14.18,1.33.36,3.51.36,4.88v38.17c0,6.48.76,13.01,2.24,19.41,6.94,24.32,23.43,44.53,45.11,56.24-.38-1.8-1.02-4.88-1.07-9.56l-.1-13.43-.43-66.27c0-10.31,4.42-19.59,11.49-26.12,6.51-6.03,15.25-9.71,24.91-9.71h19.37c5.69,0,11.06,1.28,15.83,3.55l.03.02c11.29,5.37,19.33,16.34,20.39,29.23.03.32.05,13.58.07,13.9h45.17v-33.33c0-1.18-.05-2.35-.18-3.5Z"/>
        <path class="cls-2" d="m311.94,155.14c-.89-9.03-5.18-17.09-11.59-22.89-3.71-3.38-8.16-6-13.06-7.63-3.66-1.23-7.57-1.88-11.64-1.88h-66.46c-12.28,0-23.92,2.73-34.31,7.58-4.3,2-8.36,4.35-12.2,7.05-4.8-2.68-9.81-5.03-15.02-7-.99-.38-1.98-.75-3-1.1-.81-.28-1.63-.55-2.44-.83-4.27-1.4-8.64-2.55-13.09-3.45-3.54-.71-7.14-1.24-10.79-1.62,4.38,7.07,7.53,15.5,9.48,23.12.62,2.64.71,3.16.95,5.14.18,1.33.36,3.51.36,4.88v38.17c0,6.48.76,13.01,2.24,19.41,6.94,24.32,23.43,44.53,45.11,56.24-.38-1.8-1.02-4.88-1.07-9.56l-.1-13.43-.43-66.27c0-10.31,4.42-19.59,11.49-26.12,6.51-6.03,15.25-9.71,24.91-9.71h19.37c5.69,0,11.06,1.28,15.83,3.55l.03.02c11.29,5.37,19.33,16.34,20.39,29.23.03.32.05,13.58.07,13.9h45.17v-33.33c0-1.18-.05-2.35-.18-3.5Z"/>
        <g>
          <path class="cls-2" d="m266.95,240.3c-.55.1-1.07.21-1.56.32-.02,0-.03,0-.05.01-1.45.32-2.65.67-3.67,1.06-.04.02-.09.03-.13.05-.98.38-1.78.79-2.46,1.25-.04.03-.08.05-.12.08-.21.15-.42.3-.61.46-.03.02-.06.05-.08.07-.36.3-.67.62-.96.95-.03.04-.07.08-.1.11-.13.16-.26.32-.38.49-.06.09-.12.17-.18.26-.11.16-.22.32-.32.49-.14.23-.27.46-.4.7-.08.15-.16.3-.24.45-.09.17-.17.34-.26.52-.07.14-.14.28-.2.42-.14.3-.29.6-.44.93l-.14.31c-.95,2.05-2.73,5.86-6.96,9.93h0c3.83.33,7.93.51,9.54-.02,3.31-1.09,4.59-2.43,5.77-3.32.12-.09.24-.17.36-.25,4.39-4.65,12.21-9.82,26.01-12.13,9.06-1.52,16.83-7.29,22.76-13.39v-.43c-8.96,4.21-19.63,8.1-29.71,8.88-6.89.54-11.81,1.1-15.46,1.79Z"/>
          <path class="cls-2" d="m267.04,228.4c-16.47,1.9-21.16,11.67-22.4,15.62,0,0,0,0,0,0-.09.3-.17.57-.22.79,0,.02,0,.03-.01.05-.05.21-.09.39-.12.52-.03.13-.04.24-.05.28-.06.36.15,4.73-2.57,11.85h0c.63-.49,1.21-.99,1.75-1.48.05-.05.1-.09.15-.14.5-.46.97-.92,1.4-1.38.03-.03.05-.06.08-.08,1.37-1.47,2.37-2.86,3.12-4.11.02-.04.05-.08.07-.12.21-.35.4-.7.58-1.02.04-.07.08-.15.12-.22.16-.3.3-.58.43-.85.03-.06.06-.13.09-.19.15-.3.28-.59.4-.85l.15-.32c.23-.5.46-.97.69-1.43.08-.15.15-.29.23-.44.17-.32.33-.62.5-.92.09-.15.17-.31.26-.45.22-.37.45-.72.68-1.06.09-.13.19-.26.28-.39.19-.26.38-.51.58-.75.13-.15.26-.3.39-.45.17-.19.34-.37.52-.55.14-.14.29-.29.44-.43.25-.22.51-.44.78-.65.22-.17.46-.34.7-.5.21-.14.41-.28.63-.41.22-.13.44-.26.67-.38.21-.11.43-.22.66-.33.25-.12.49-.24.76-.36.31-.13.65-.26.98-.39.43-.16.88-.31,1.34-.46.26-.08.51-.16.78-.24.36-.1.73-.2,1.11-.3.27-.07.56-.14.85-.2,4.28-1,10.05-1.71,18.15-2.34,10.12-.79,21.16-5.1,30.13-9.52v-.74c-10.77,2.44-25.78,5.19-38.04,4.96-2.58-.05-4.88.1-7.04.35Z"/>
          <path class="cls-2" d="m264.51,262.6c-.42,1.06-.88,2.09-1.4,3.1,0,0,0,.02,0,.02h0c-3.6,6.98-9.44,12.65-16.6,16.05l-.03.03c-2.71,1.3-5.69,2.54-8.8,3.4-2.4.65-4.85,1.06-7.32,1.06h-.05c-3.42.39-6.9.57-10.4.57-11.09,0-21.7-1.87-31.63-5.29-.03,0-.05-.03-.08-.03-8.58-2.46-17.46-6.19-25.78-11.79-4.06-2.7-6.53-4.77-9.48-7.49-9.27-8.58-17.59-19.86-21.45-31.48,0-.03-1.8-4.04-2.17-6.19-.23,4.97-.21,7.32-.21,11.36v36.03c0,12.16,6.14,22.89,15.54,29.39h.03c5.92,4.09,13.14,6.51,20.91,6.51h110.07c.63,0,1.26-.03,1.87-.05.68-.03,1.4-.08,2.08-.16.55-.05,1.08-.13,1.61-.21.45-.08.9-.16,1.34-.23.74-.13,1.47-.29,2.21-.49.58-.13,1.13-.29,1.69-.47.29-.08.58-.16.84-.26.37-.13.76-.26,1.13-.41.45-.16.9-.34,1.34-.52.08-.03.16-.05.21-.08.5-.21.97-.44,1.47-.67,1.08-.49,2.11-1.06,3.11-1.66.5-.29.97-.6,1.47-.93,1.53-1.01,2.98-2.13,4.32-3.34.37-.34.74-.67,1.08-1.04.42-.41.82-.83,1.21-1.24,1.84-2,3.48-4.2,4.82-6.58.26-.44.5-.91.74-1.37.26-.49.5-.98.71-1.48.21-.47.42-.93.63-1.43.03-.05.05-.13.05-.18.18-.47.37-.93.53-1.37.03-.05.03-.08.05-.1.16-.52.32-1.01.47-1.53.18-.65.37-1.3.53-1.97.24-.96.42-1.94.55-2.93.08-.54.16-1.11.21-1.68.13-1.14.18-2.31.18-3.5v-34.63c-5.98,5.27-13.35,9.8-21.87,11.23-16.71,2.8-23.27,9.9-25.74,14.05Z"/>
          <path class="cls-2" d="m269.04,216.02c-26.84-.55-29.73,16.88-29.84,17.62-.06.36-.98,5.66-2.57,11.85,5.04-1.6,7.14-8.18,8.18-10.43l.15-.32c3.38-7.26,8.88-10.63,22.09-11.6v.03c.66-.07,1.36-.11,2.04-.15,1.14-.06,2.34-.1,3.59-.13.5,0,.98-.03,1.5-.02.49.01,1.03-.02,1.53-.02.83,0,1.65-.01,2.53,0,10.15.08,25.05-.98,34.02-5.4v-.74c-10.77,2.44-30.96-.45-43.23-.67Z"/>
        </g>
      </g>
    </g>
  </g>
</svg>