<?xml version="1.0" encoding="UTF-8"?>
<svg id="Camada_2" data-name="Camada 2" xmlns="http://www.w3.org/2000/svg" viewBox="0 0 167.84 102.57">
  <defs>
    <style>
      .cls-1 {
        opacity: .5;
      }

      .cls-2, .cls-3, .cls-4, .cls-5, .cls-6, .cls-7 {
        stroke-width: 0px;
      }

      .cls-3 {
        fill: #e0e0e0;
      }

      .cls-4 {
        fill: #f5f5f5;
      }

      .cls-5 {
        fill: #fff;
      }

      .cls-6 {
        fill: #263238;
      }

      .cls-7 {
        fill: #e8505b;
      }
    </style>
  </defs>
  <g id="Folder">
    <g>
      <g>
        <rect class="cls-4" x="18.19" y="19.44" width="37.66" height="55.46" transform="translate(-19.98 28.55) rotate(-33.78)"/>
        <g>
          <polygon class="cls-3" points="51.92 57.57 51.57 59.76 36 57.52 36.36 55.32 51.92 57.57"/>
          <polygon class="cls-3" points="44.08 49.72 46.32 50.04 43.84 65.37 41.61 65.05 44.08 49.72"/>
        </g>
        <path class="cls-3" d="m29.75,30.25s-3.12,2.17-7.01,4.77c-3.89,2.6-7.07,4.69-7.09,4.65-.02-.03,3.11-2.17,7.01-4.77,3.89-2.6,7.07-4.69,7.09-4.65Z"/>
        <path class="cls-3" d="m41.26,27.36s-5.19,3.56-11.65,7.88c-6.46,4.32-11.71,7.79-11.73,7.76-.02-.03,5.19-3.56,11.65-7.88,6.46-4.32,11.71-7.79,11.73-7.76Z"/>
        <path class="cls-3" d="m43.57,30.81s-5.19,3.56-11.65,7.88c-6.46,4.32-11.71,7.79-11.73,7.76-.02-.03,5.19-3.56,11.65-7.88,6.46-4.32,11.71-7.79,11.73-7.76Z"/>
        <path class="cls-3" d="m45.88,34.26s-5.19,3.56-11.65,7.88c-6.46,4.32-11.71,7.79-11.73,7.76-.02-.03,5.19-3.56,11.65-7.88,6.46-4.32,11.71-7.79,11.73-7.76Z"/>
        <path class="cls-3" d="m48.19,37.71s-5.19,3.56-11.65,7.88c-6.46,4.32-11.71,7.79-11.73,7.76-.02-.03,5.19-3.56,11.65-7.88,6.46-4.32,11.71-7.79,11.73-7.76Z"/>
      </g>
      <g>
        <rect class="cls-4" x="125.93" y="49.41" width="31.63" height="46.58" transform="translate(-16.49 91.08) rotate(-33.78)"/>
        <g>
          <polygon class="cls-3" points="154.26 81.43 153.96 83.27 140.89 81.39 141.19 79.54 154.26 81.43"/>
          <polygon class="cls-3" points="147.68 74.84 149.55 75.11 147.47 87.98 145.6 87.71 147.68 74.84"/>
        </g>
        <path class="cls-3" d="m135.64,58.48s-2.61,1.83-5.88,4.02c-3.27,2.19-5.94,3.93-5.96,3.9-.02-.03,2.61-1.83,5.88-4.02,3.27-2.19,5.94-3.93,5.96-3.9Z"/>
        <path class="cls-3" d="m145.31,56.06s-4.36,3-9.78,6.63c-5.42,3.63-9.84,6.54-9.86,6.51-.02-.03,4.36-3,9.78-6.63,5.42-3.63,9.84-6.54,9.86-6.51Z"/>
        <path class="cls-3" d="m147.24,58.95s-4.36,3-9.78,6.63c-5.42,3.63-9.84,6.54-9.86,6.51-.02-.03,4.36-3,9.78-6.63,5.42-3.63,9.84-6.54,9.86-6.51Z"/>
        <path class="cls-3" d="m149.18,61.85s-4.36,3-9.78,6.63c-5.42,3.63-9.84,6.54-9.86,6.51-.02-.03,4.36-3,9.78-6.63,5.42-3.63,9.84-6.54,9.86-6.51Z"/>
        <path class="cls-3" d="m151.12,64.75s-4.36,3-9.78,6.63c-5.42,3.63-9.84,6.54-9.86,6.51-.02-.03,4.36-3,9.78-6.63,5.42-3.63,9.84-6.54,9.86-6.51Z"/>
      </g>
      <g>
        <rect class="cls-4" x="58.44" y="4.84" width="32.53" height="47.9" transform="translate(22.41 -31.83) rotate(28.14)"/>
        <g>
          <polygon class="cls-3" points="72.85 44.37 71.03 44.99 66.41 32.22 68.23 31.6 72.85 44.37"/>
          <polygon class="cls-3" points="75.64 35.21 76.3 37.04 63.62 41.39 62.95 39.55 75.64 35.21"/>
        </g>
        <path class="cls-3" d="m84.65,16.36s-2.93-1.47-6.5-3.38c-3.57-1.91-6.44-3.49-6.42-3.53.02-.04,2.93,1.47,6.5,3.38,3.57,1.91,6.44,3.49,6.42,3.53Z"/>
        <path class="cls-3" d="m91.54,23.96s-4.84-2.49-10.75-5.65c-5.92-3.17-10.7-5.76-10.67-5.81.02-.04,4.84,2.49,10.76,5.65,5.92,3.16,10.7,5.76,10.67,5.81Z"/>
        <path class="cls-3" d="m89.84,27.12s-4.84-2.49-10.75-5.65c-5.92-3.17-10.7-5.76-10.67-5.81.02-.04,4.84,2.49,10.76,5.65,5.92,3.16,10.7,5.76,10.67,5.81Z"/>
        <path class="cls-3" d="m88.15,30.29s-4.84-2.49-10.75-5.65c-5.92-3.17-10.7-5.76-10.67-5.81.02-.04,4.84,2.49,10.76,5.65,5.92,3.16,10.7,5.76,10.67,5.81Z"/>
        <path class="cls-3" d="m86.46,33.45s-4.84-2.49-10.75-5.65c-5.92-3.17-10.7-5.76-10.67-5.81.02-.04,4.84,2.49,10.76,5.65,5.92,3.16,10.7,5.76,10.67,5.81Z"/>
      </g>
      <path class="cls-6" d="m161.09,102.26s-36.06.07-80.54.07-80.55-.03-80.55-.07,36.06-.07,80.55-.07,80.54.03,80.54.07Z"/>
      <g>
        <path class="cls-7" d="m8.92,84.78c.94.03,1.83.55,2.45,1.26.62.71,1,1.6,1.25,2.51.47,1.76.18,3.85-.32,5.6-1.91-.68-3.09-2.72-3.62-3.79-.84-1.69-1.34-5.26.24-5.58"/>
        <path class="cls-7" d="m15.04,96.29c-.6-.87-.62-2.07-.14-3.01.48-.94,1.39-1.62,2.4-1.93.47-.14,1.01-.2,1.41.07.38.25.54.75.49,1.2-.05.45-.28.87-.55,1.23-.93,1.26-2.06,2.3-3.62,2.43"/>
        <path class="cls-6" d="m15.25,102.19s-.04-.13-.09-.37c-.05-.26-.12-.6-.2-1.01-.15-.85-.39-2.05-.21-3.38.17-1.32.7-2.45,1.25-3.13.27-.34.53-.58.72-.73.09-.08.18-.13.23-.16.05-.04.08-.05.09-.05.02.02-.45.31-.96,1-.52.68-1.02,1.79-1.2,3.09-.18,1.3.04,2.49.17,3.34.07.43.12.77.16,1.01.03.24.04.37.03.38Z"/>
        <path class="cls-6" d="m9.53,87.47s.03.05.08.14c.05.11.12.25.2.43.17.37.41.91.69,1.58.58,1.34,1.34,3.19,2.15,5.26.8,2.07,1.49,3.96,1.96,5.34.24.69.43,1.25.55,1.63.06.18.1.33.14.45.03.1.05.16.04.16s-.03-.05-.07-.15c-.04-.11-.1-.26-.16-.44-.15-.4-.35-.95-.59-1.62-.5-1.37-1.2-3.25-2-5.32-.8-2.07-1.56-3.93-2.11-5.27-.27-.66-.49-1.2-.65-1.59-.07-.18-.13-.32-.17-.44-.04-.1-.06-.15-.05-.16Z"/>
        <path class="cls-7" d="m12.98,98.29c-1.13-1.92-3.23-3.22-5.45-3.38-.56-.04-1.24.05-1.5.56-.25.51.09,1.11.47,1.53,1.6,1.73,4.31,2.34,6.49,1.45"/>
        <path class="cls-6" d="m8.4,96.41s.13,0,.35.01c.11,0,.25.02.41.05.16.03.34.05.54.1.2.05.42.1.64.18.23.07.47.17.72.27.49.22,1.01.52,1.51.9.49.38.91.81,1.25,1.24.16.22.32.42.44.63.13.2.23.4.33.58.1.18.16.35.22.5.07.15.11.28.14.39.07.22.1.34.09.34-.03,0-.16-.48-.54-1.19-.1-.18-.2-.37-.34-.57-.12-.2-.28-.4-.44-.61-.34-.41-.75-.83-1.24-1.21-.49-.37-1-.66-1.48-.89-.24-.11-.48-.21-.7-.28-.22-.08-.44-.14-.63-.19-.78-.2-1.29-.22-1.28-.25Z"/>
      </g>
      <g>
        <path class="cls-7" d="m59.33,44.98l-9.87,50.72-1.29,6.64,65.87-.32c2.96-.01,5.58-2.64,6.53-6.54l11.68-47.89c.72-2.96-.86-6.04-3.11-6.04l-66.66.07c-1.47,0-2.76,1.37-3.14,3.35Z"/>
        <g class="cls-1">
          <path class="cls-2" d="m59.33,44.98l-9.87,50.72-1.29,6.64,65.87-.32c2.96-.01,5.58-2.64,6.53-6.54l11.68-47.89c.72-2.96-.86-6.04-3.11-6.04l-66.66.07c-1.47,0-2.76,1.37-3.14,3.35Z"/>
        </g>
        <path class="cls-7" d="m107.72,92.27l-6.97-56.2c-.29-2.3-2.12-4.02-4.29-4.01l-15.29.05c-1.13,0-2.22.48-3.02,1.34l-7.26,7.72-42.53.22c-2.6.01-4.6,2.47-4.25,5.24l6.47,51.94c.29,2.3,2.12,4.01,4.28,4.01l74.12-.15c8.26.17,9.04-2.27,9.04-2.27-9.46,2.1-10.3-7.89-10.3-7.89Z"/>
        <g class="cls-1">
          <polygon class="cls-5" points="75.76 81.02 73.26 83.7 54 66.38 56.5 63.7 75.76 81.02"/>
          <polygon class="cls-5" points="72.21 63.1 74.97 65.59 57.55 84.3 54.79 81.81 72.21 63.1"/>
        </g>
      </g>
    </g>
  </g>
</svg>