<svg width="46" height="59" viewBox="0 0 46 59" fill="none" xmlns="http://www.w3.org/2000/svg">
<path d="M22.7955 30.8409C27.2388 30.8409 30.8409 27.2388 30.8409 22.7955C30.8409 18.3521 27.2388 14.75 22.7955 14.75C18.3521 14.75 14.75 18.3521 14.75 22.7955C14.75 27.2388 18.3521 30.8409 22.7955 30.8409Z" fill="black"/>
<path fill-rule="evenodd" clip-rule="evenodd" d="M0 22.7955C0 10.2058 10.2058 0 22.7955 0C35.3851 0 45.5909 10.2058 45.5909 22.7955C45.5909 32.4618 40.0674 41.4533 34.9354 47.7828C32.3282 50.9983 29.7275 53.6416 27.7796 55.4813C26.804 56.4027 25.9878 57.1266 25.4106 57.6241C25.1219 57.873 24.8926 58.0654 24.7328 58.198C24.6528 58.2642 24.5902 58.3155 24.5461 58.3514C24.5342 58.3611 24.5236 58.3697 24.5144 58.3771C24.5067 58.3834 24.4999 58.3889 24.4941 58.3936L24.4788 58.4059L24.4739 58.4099L24.4721 58.4113C24.4714 58.4118 24.4708 58.4123 22.7955 56.3182C21.1201 58.4123 21.1195 58.4118 21.1188 58.4113L21.1171 58.4099L21.1121 58.4059L21.0968 58.3936C21.0842 58.3834 21.0668 58.3693 21.0448 58.3514C21.0007 58.3155 20.9381 58.2642 20.8581 58.198C20.6983 58.0654 20.469 57.873 20.1803 57.6241C19.6031 57.1266 18.7869 56.4027 17.8113 55.4813C15.8634 53.6416 13.2627 50.9983 10.6555 47.7828C5.52354 41.4533 0 32.4618 0 22.7955ZM22.7955 56.3182L21.1201 58.4123C22.0996 59.1959 23.4913 59.1959 24.4708 58.4123L22.7955 56.3182ZM22.7955 52.7808C23.1784 52.4371 23.616 52.036 24.0968 51.5819C25.9202 49.8598 28.3479 47.3909 30.7692 44.4047C35.694 38.3308 40.2273 30.561 40.2273 22.7955C40.2273 13.1681 32.4228 5.36364 22.7955 5.36364C13.1681 5.36364 5.36364 13.1681 5.36364 22.7955C5.36364 30.561 9.89692 38.3308 14.8218 44.4047C17.243 47.3909 19.6707 49.8598 21.4941 51.5819C21.9749 52.036 22.4125 52.4371 22.7955 52.7808ZM12.0682 22.7955C12.0682 16.871 16.871 12.0682 22.7955 12.0682C28.72 12.0682 33.5227 16.871 33.5227 22.7955C33.5227 28.72 28.72 33.5227 22.7955 33.5227C16.871 33.5227 12.0682 28.72 12.0682 22.7955ZM22.7955 17.4318C19.8332 17.4318 17.4318 19.8332 17.4318 22.7955C17.4318 25.7577 19.8332 28.1591 22.7955 28.1591C25.7577 28.1591 28.1591 25.7577 28.1591 22.7955C28.1591 19.8332 25.7577 17.4318 22.7955 17.4318Z" fill="black"/>
</svg>
