<svg width="89" height="80" viewBox="0 0 89 80" fill="none" xmlns="http://www.w3.org/2000/svg">
<g clip-path="url(#clip0_13_111)">
<path d="M52.2646 5.4314C43.7216 14.3344 39.2535 14.9794 28.4303 19.9038C19.5818 23.9298 10.8186 31.7579 7.83089 41.5117C-0.0449824 67.2045 34.9539 70.4181 51.4806 66.2246C63.1147 63.2713 67.7715 56.4707 70.7165 45.187C71.8622 40.7989 72.1969 36.0532 74.0839 31.8755C76.1124 27.3901 80.2637 25.204 82.3304 21.2662C92.3516 2.17256 63.6516 -6.43621 52.2646 5.4314Z" fill="#006633"/>
<path opacity="0.9" d="M52.2646 5.4314C43.7216 14.3344 39.2535 14.9794 28.4303 19.9038C19.5818 23.9298 10.8186 31.7579 7.83089 41.5117C-0.0449824 67.2045 34.9539 70.4181 51.4806 66.2246C63.1147 63.2713 67.7715 56.4707 70.7165 45.187C71.8622 40.7989 72.1969 36.0532 74.0839 31.8755C76.1124 27.3901 80.2637 25.204 82.3304 21.2662C92.3516 2.17256 63.6516 -6.43621 52.2646 5.4314Z" fill="white"/>
<path d="M0 8.93013C0 8.14936 0.63573 7.50891 1.41074 7.50891H64.3593C65.1343 7.50891 65.77 8.14936 65.77 8.93013V13.5038H0V8.93013Z" fill="#263238"/>
<path d="M11.4049 11.7069C10.749 11.7069 10.2144 11.1683 10.2144 10.5075C10.2144 9.84666 10.749 9.30804 11.4049 9.30804C12.0609 9.30804 12.5955 9.84666 12.5955 10.5075C12.5955 11.1683 12.0609 11.7069 11.4049 11.7069ZM11.4049 9.55698C10.886 9.55698 10.4637 9.98244 10.4637 10.5052C10.4637 11.028 10.886 11.4534 11.4049 11.4534C11.9239 11.4534 12.3462 11.028 12.3462 10.5052C12.3462 9.98244 11.9239 9.55698 11.4049 9.55698Z" fill="#F0F0F0"/>
<path d="M7.62431 11.7069C6.96836 11.7069 6.43372 11.1683 6.43372 10.5075C6.43372 9.84666 6.96836 9.30804 7.62431 9.30804C8.28025 9.30804 8.8149 9.84666 8.8149 10.5075C8.8149 11.1683 8.28025 11.7069 7.62431 11.7069ZM7.62431 9.55698C7.10539 9.55698 6.68307 9.98244 6.68307 10.5052C6.68307 11.028 7.10539 11.4534 7.62431 11.4534C8.14322 11.4534 8.56555 11.028 8.56555 10.5052C8.56555 9.98244 8.14322 9.55698 7.62431 9.55698Z" fill="#F0F0F0"/>
<path d="M3.84586 11.7069C3.18992 11.7069 2.65527 11.1683 2.65527 10.5075C2.65527 9.84666 3.18992 9.30804 3.84586 9.30804C4.50181 9.30804 5.03645 9.84666 5.03645 10.5075C5.03645 11.1683 4.50181 11.7069 3.84586 11.7069ZM3.84586 9.55698C3.32695 9.55698 2.90462 9.98244 2.90462 10.5052C2.90462 11.028 3.32695 11.4534 3.84586 11.4534C4.36478 11.4534 4.7871 11.028 4.7871 10.5052C4.7871 9.98244 4.36478 9.55698 3.84586 9.55698Z" fill="#F0F0F0"/>
<path d="M64.3593 57.1451H1.41074C0.63573 57.1451 0 56.5047 0 55.7239V13.5038H65.77V55.7239C65.77 56.5047 65.1343 57.1451 64.3593 57.1451Z" fill="#006633"/>
<path d="M65.3702 14.7191H0.399902V52.1347H65.3702V14.7191Z" fill="white"/>
<path d="M29.1874 17.9282H4.43889C3.9662 17.9282 3.58301 18.3142 3.58301 18.7904V22.1194C3.58301 22.5956 3.9662 22.9816 4.43889 22.9816H29.1874C29.6601 22.9816 30.0433 22.5956 30.0433 22.1194V18.7904C30.0433 18.3142 29.6601 17.9282 29.1874 17.9282Z" fill="#006633"/>
<path d="M61.3311 18.1545C61.6793 18.1545 61.9624 18.4396 61.9624 18.7904V22.1194C61.9624 22.4702 61.6793 22.7553 61.3311 22.7553H36.5826C36.2344 22.7553 35.9513 22.4702 35.9513 22.1194V18.7904C35.9513 18.4396 36.2344 18.1545 36.5826 18.1545H61.3311ZM61.3311 17.9282H36.5826C36.1108 17.9282 35.7267 18.3151 35.7267 18.7904V22.1194C35.7267 22.5946 36.1108 22.9816 36.5826 22.9816H61.3311C61.8029 22.9816 62.187 22.5946 62.187 22.1194V18.7904C62.187 18.3151 61.8029 17.9282 61.3311 17.9282Z" fill="#006633"/>
<path d="M7.98145 25.2447C10.2818 25.2447 12.1553 27.1298 12.1553 29.4495C12.1553 31.7691 10.284 33.6543 7.98145 33.6543C5.6789 33.6543 3.80765 31.7691 3.80765 29.4495C3.80765 27.1298 5.6789 25.2447 7.98145 25.2447ZM7.98145 25.0184C5.5531 25.0184 3.58301 27.0031 3.58301 29.4495C3.58301 31.8959 5.5531 33.8806 7.98145 33.8806C10.4098 33.8806 12.3799 31.8959 12.3799 29.4495C12.3799 27.0031 10.4098 25.0184 7.98145 25.0184Z" fill="#006633"/>
<path opacity="0.4" d="M11.1736 31.1921C10.5603 32.3327 9.36297 33.1066 7.98144 33.1066C6.5999 33.1066 5.40257 32.3304 4.78931 31.1921C5.70359 30.5765 6.79983 30.2189 7.98144 30.2189C9.16304 30.2189 10.2593 30.5788 11.1736 31.1921Z" fill="#006633"/>
<path opacity="0.4" d="M7.98142 29.8274C8.87469 29.8274 9.59883 29.0979 9.59883 28.198C9.59883 27.2981 8.87469 26.5686 7.98142 26.5686C7.08815 26.5686 6.36401 27.2981 6.36401 28.198C6.36401 29.0979 7.08815 29.8274 7.98142 29.8274Z" fill="#006633"/>
<path opacity="0.4" d="M59.9249 31.7284H17.1131C15.8641 31.7284 14.851 30.7077 14.851 29.4495C14.851 28.1912 15.8641 27.1705 17.1131 27.1705H59.9272C61.1761 27.1705 62.1893 28.1912 62.1893 29.4495C62.1893 30.7077 61.1761 31.7284 59.9272 31.7284H59.9249Z" fill="#006633"/>
<path d="M7.98145 37.3137C10.2818 37.3137 12.1553 39.1989 12.1553 41.5185C12.1553 43.8382 10.284 45.7233 7.98145 45.7233C5.6789 45.7233 3.80765 43.8382 3.80765 41.5185C3.80765 39.1989 5.6789 37.3137 7.98145 37.3137ZM7.98145 37.0874C5.5531 37.0874 3.58301 39.0721 3.58301 41.5185C3.58301 43.9649 5.5531 45.9496 7.98145 45.9496C10.4098 45.9496 12.3799 43.9649 12.3799 41.5185C12.3799 39.0721 10.4098 37.0874 7.98145 37.0874Z" fill="#006633"/>
<path opacity="0.4" d="M11.1736 43.2611C10.5603 44.4017 9.36297 45.1757 7.98144 45.1757C6.5999 45.1757 5.40257 44.3994 4.78931 43.2611C5.70359 42.6455 6.79983 42.288 7.98144 42.288C9.16304 42.288 10.2593 42.6478 11.1736 43.2611Z" fill="#006633"/>
<path opacity="0.4" d="M7.98142 41.8965C8.87469 41.8965 9.59883 41.167 9.59883 40.2671C9.59883 39.3671 8.87469 38.6376 7.98142 38.6376C7.08815 38.6376 6.36401 39.3671 6.36401 40.2671C6.36401 41.167 7.08815 41.8965 7.98142 41.8965Z" fill="#006633"/>
<path opacity="0.4" d="M59.9271 39.2419H17.1108C15.8627 39.2419 14.851 40.2612 14.851 41.5185V41.5208C14.851 42.7782 15.8627 43.7975 17.1108 43.7975H59.9271C61.1752 43.7975 62.187 42.7782 62.187 41.5208V41.5185C62.187 40.2612 61.1752 39.2419 59.9271 39.2419Z" fill="#006633"/>
<path opacity="0.1" d="M49.3803 43.7318C49.3803 45.1191 49.515 46.4996 49.7824 47.8551C47.2754 49.3533 45.6512 52.112 45.6512 55.1491C45.6512 55.837 45.7321 56.5046 45.8871 57.1451H64.3592C65.1342 57.1451 65.77 56.5069 65.77 55.7239V23.1445C56.4025 25.2401 49.3803 33.6747 49.3803 43.7318Z" fill="black"/>
<path d="M83.5269 57.9366C90.8249 50.5843 90.8249 38.664 83.5269 31.3117C76.2289 23.9595 64.3964 23.9595 57.0984 31.3117C49.8004 38.664 49.8004 50.5843 57.0984 57.9366C64.3964 65.2888 76.2289 65.2888 83.5269 57.9366Z" fill="#006633"/>
<path d="M82.4481 56.7331C89.1013 50.0304 89.1013 39.1633 82.4481 32.4606C75.7949 25.758 65.0078 25.758 58.3546 32.4606C51.7014 39.1633 51.7014 50.0304 58.3546 56.7331C65.0078 63.4358 75.7949 63.4357 82.4481 56.7331Z" fill="white"/>
<path d="M64.6535 33.084L63.5663 34.4872C63.5663 34.4872 62.6116 35.2181 62.2499 35.8405C61.8276 36.2614 61.4389 36.6937 61.0571 37.1485C60.628 37.6645 60.2191 38.2031 59.835 38.7802C59.4599 39.3664 59.0937 39.9706 58.8196 40.7242C58.6871 41.1067 58.5591 41.5208 58.5478 42.0798C58.5456 42.3604 58.5793 42.6886 58.7186 43.0416C58.8533 43.3947 59.1207 43.7545 59.4307 43.9921L59.6688 44.1732L60.026 44.241C60.7448 44.3791 61.4614 44.447 62.1645 44.4515C62.1803 44.4515 62.4318 44.4266 62.4476 44.4289L62.1623 41.5661C61.9219 41.5751 61.4052 41.6136 61.1694 41.6091C61.1784 41.5638 61.1873 41.5208 61.1986 41.4733C61.3131 40.9913 61.531 40.4323 61.7849 39.8914C62.0365 39.3437 62.3263 38.7915 62.6273 38.2439C62.8924 37.7618 63.1754 37.273 63.454 36.7978L64.7973 35.9423L65.588 34.5324L64.6535 33.084ZM61.1469 42.0232C61.1424 42.0074 61.1402 41.9825 61.1379 41.9576C61.1469 41.9757 61.1537 41.9938 61.1581 42.0096C61.1739 42.064 61.1581 42.0662 61.1469 42.0232Z" fill="#7F3E3B"/>
<path d="M72.3093 36.1143C72.343 35.94 72.2891 35.9287 72.2441 35.9287C72.2104 35.9287 72.1004 36.0147 72.0757 36.1188C71.8667 36.4447 71.6084 36.7276 71.2692 36.9743C71.2243 37.0059 71.1816 37.0399 71.1344 37.0693C70.7031 37.3545 70.2493 37.4902 69.8113 37.5083C69.8203 37.5559 69.8293 37.6034 69.836 37.6509C69.854 37.7618 69.8652 37.8727 69.8742 37.9836C69.9236 38.7055 69.7372 39.3754 68.9307 39.7601C68.9285 39.8054 68.8206 39.8529 68.7847 39.8846C68.5601 40.086 68.2456 40.5296 68.25 40.9143C68.2523 41.2107 68.5241 41.4416 68.8476 41.7222L69.3014 42.0277L69.9169 41.9689C71.8061 41.4099 72.6867 39.6696 72.6462 39.5429C72.1565 38.7372 72.1633 37.3341 72.3093 36.1143Z" fill="#7F3E3B"/>
<path d="M76.3932 40.2399C76.3932 40.2399 76.2674 40.2173 76.0495 40.1811C75.6025 40.1086 73.5965 39.6515 72.6305 39.5632C72.4036 40.043 71.6691 41.2198 69.7799 41.7788L69.3126 41.8897L68.8723 41.6543C68.5488 41.3737 68.3848 41.0818 68.3826 40.7853C68.3781 40.4006 68.6477 40.0792 68.8723 39.8778C68.8903 39.862 68.9015 39.8439 68.9105 39.8257C68.906 39.7714 68.906 39.7352 68.9105 39.7307C68.769 39.7488 66.9786 40.0226 66.8258 40.0475C64.4941 40.4209 61.868 41.4348 61.868 41.4348L61.886 41.5977L62.2117 44.4492L62.3353 45.5287C62.3353 45.5287 63.2361 45.4269 64.4132 45.2187C64.0897 48.1018 64.0291 52.2795 65.0107 57.6498C66.0441 57.6294 68.8454 57.5751 68.8454 57.5774C71.5994 57.5253 74.4883 57.471 75.5082 57.4506C75.5351 56.998 75.4857 56.0611 75.4385 54.7802L75.3779 52.8023C75.3419 51.0552 75.3487 48.9596 75.5037 46.7078C75.5284 46.3525 75.5576 45.9949 75.589 45.6328C76.9503 47.1174 78.3139 48.5341 78.3139 48.5341L78.9564 47.9095C79.7808 47.5089 80.43 46.7915 80.9961 45.927L81.7531 45.1915C81.7531 45.1915 78.233 40.5431 76.391 40.2308L76.3932 40.2399Z" fill="#006633"/>
<path opacity="0.3" d="M74.549 44.4877C74.5984 44.9539 74.7489 45.4111 74.987 45.8229L75.5037 46.7146C75.5284 46.3616 75.5576 46.0017 75.589 45.6396C75.2341 45.2527 74.8792 44.8611 74.549 44.4877Z" fill="black"/>
<path opacity="0.3" d="M75.5922 45.6396C75.5604 46.0017 75.5308 46.3592 75.5059 46.7146C75.5308 46.3615 75.5604 46.0017 75.5922 45.6418V45.6396Z" fill="black"/>
<path opacity="0.2" d="M69.8724 37.9859C69.8655 37.875 69.8519 37.7664 69.8337 37.6532C69.8519 37.7641 69.8655 37.875 69.8724 37.9859Z" fill="black"/>
<path d="M71.2692 36.9765C71.2243 37.0082 71.1816 37.0421 71.1344 37.0716C70.7031 37.3567 70.2493 37.4925 69.8113 37.5106C69.8203 37.5581 69.8293 37.6056 69.836 37.6532C69.854 37.7641 69.8652 37.875 69.8742 37.9858C69.8742 37.9926 69.8742 37.9994 69.8742 38.0039C70.3572 37.9247 70.9861 37.4766 71.2692 36.9742V36.9765Z" fill="#7F3E3B"/>
<path d="M73.7919 39.9072C73.7515 39.7239 73.6122 39.57 73.419 39.5225L72.9518 39.4094C72.8282 39.3799 72.7092 39.4343 72.644 39.5406C72.6395 39.5474 72.6328 39.5542 72.6283 39.5633C72.4014 40.043 71.6668 41.2198 69.7776 41.7788L69.6316 41.815L69.3104 41.892L68.8701 41.6566C68.5466 41.376 68.3826 41.084 68.3804 40.7876C68.3759 40.4029 68.6454 40.0815 68.8701 39.8801C68.888 39.8642 68.9262 39.8145 68.9352 39.7964C68.9554 39.7443 68.9509 39.7194 68.915 39.6945C68.4208 39.3347 67.3088 39.8891 67.2639 39.9864C67.2167 40.0317 67.1695 40.0838 67.1224 40.1403C66.8955 40.4142 66.7045 40.8102 66.763 41.3398C66.891 42.5166 67.8592 43.0733 67.9019 43.0959C67.9109 43.1004 67.9221 43.105 67.9333 43.105C67.9468 43.105 67.958 43.1005 67.9693 43.0937C67.9895 43.0801 68.0007 43.0575 68.0007 43.0326C67.9985 42.9986 67.958 42.2133 68.8319 41.7856L69.225 41.9961C67.5357 48.9822 68.6814 57.3511 68.7128 57.5774C68.7959 57.5774 68.8431 57.5774 68.8431 57.5774C68.8431 57.5751 68.8454 57.5729 68.8431 57.5683C68.8319 57.4846 67.6503 49.0388 69.353 42.0164L69.7664 41.9191C70.2449 42.5075 70.018 43.3811 70.0157 43.3901C70.009 43.415 70.0157 43.4422 70.0359 43.458C70.0472 43.4693 70.0629 43.4739 70.0786 43.4739C70.0876 43.4739 70.0966 43.4739 70.1056 43.4693C70.1954 43.4309 72.3205 42.4917 73.0618 41.5978C73.5021 41.0659 73.6998 40.5047 73.7852 40.1268C73.8032 40.0521 73.8009 39.9774 73.7852 39.9072H73.7919Z" fill="white"/>
<path opacity="0.2" d="M71.2692 36.9765C71.2243 37.0082 71.1816 37.0421 71.1344 37.0716C70.7031 37.3567 70.2493 37.4925 69.8113 37.5106C69.8203 37.5581 69.8293 37.6056 69.836 37.6532C69.854 37.7641 69.8652 37.875 69.8742 37.9858C69.8742 37.9926 69.8742 37.9994 69.8742 38.0039C70.3572 37.9247 70.9861 37.4766 71.2692 36.9742V36.9765Z" fill="black"/>
<path d="M68.0006 31.6968C68.2275 31.2894 68.5016 30.9228 68.8251 30.6263C68.6723 30.5086 68.542 30.3774 68.4432 30.2303C68.0905 30.3978 67.7558 30.8707 67.5806 31.9299C67.5356 32.2037 67.5356 32.4549 67.5626 32.688C67.63 32.4888 67.7086 32.292 67.794 32.1019L67.9984 31.6968H68.0006Z" fill="#263238"/>
<path d="M72.1744 34.4736C73.1876 33.2922 72.5428 31.785 71.9498 31.4478C72.0599 29.8682 69.8022 29.6623 68.8228 30.6263C68.4993 30.9205 68.2253 31.2894 67.9984 31.6968L67.794 32.1019C67.7064 32.292 67.63 32.4888 67.5626 32.688C67.302 33.4507 67.1784 34.2473 67.1807 34.9126C67.1874 36.4266 68.4274 37.5672 69.809 37.5106C70.247 37.4925 70.7008 37.3567 71.1321 37.0716C71.1793 37.0399 71.222 37.0082 71.2669 36.9765C71.6083 36.7276 71.8644 36.447 72.0733 36.1211C72.5788 35.3086 72.4462 34.899 72.1722 34.4758L72.1744 34.4736Z" fill="#7F3E3B"/>
<path d="M67.6728 31.9661C67.6413 32.0068 67.648 32.0656 67.6862 32.0973C67.7042 32.1109 67.7244 32.1177 67.7469 32.1177C67.7649 32.1177 67.7806 32.1109 67.7963 32.0996C67.803 32.095 67.812 32.0905 67.8188 32.0815C68.0816 31.7533 68.4186 31.7692 68.432 31.7714C68.4815 31.7737 68.5264 31.7352 68.5309 31.6832C68.5354 31.6311 68.4972 31.5881 68.4455 31.5836C68.4343 31.5836 68.2321 31.5745 68.0007 31.6945C67.8929 31.7511 67.7783 31.8348 67.6728 31.9638V31.9661Z" fill="#263238"/>
<path d="M70.1033 34.6795C70.0854 34.6614 70.0562 34.6614 70.0382 34.6795C70.0337 34.684 69.6024 35.0959 68.9217 34.9601C68.897 34.9556 68.8723 34.9714 68.8678 34.9963C68.8633 35.0212 68.8791 35.0461 68.9038 35.0506C69.0183 35.0732 69.1284 35.0823 69.2295 35.08C69.7664 35.071 70.0876 34.7609 70.1033 34.7451C70.1213 34.727 70.1213 34.6976 70.1033 34.6795Z" fill="#263238"/>
<path d="M68.8925 33.0637C68.8925 33.0637 68.3309 33.8897 67.8412 34.2427C68.0568 34.555 68.551 34.5301 68.551 34.5301L68.8947 33.0614L68.8925 33.0637Z" fill="#630F0F"/>
<path d="M68.1018 33.118C68.2029 33.1383 68.3152 33.0297 68.3511 32.8735C68.3871 32.7174 68.3354 32.5748 68.2321 32.5545C68.131 32.5341 68.0186 32.6427 67.9827 32.7989C67.9468 32.955 67.9984 33.0976 68.1018 33.118Z" fill="#263238"/>
<path d="M69.8562 33.471C69.9572 33.4914 70.0696 33.3827 70.1055 33.2266C70.1414 33.0704 70.0898 32.9279 69.9864 32.9075C69.8854 32.8871 69.773 32.9957 69.7371 33.1519C69.7012 33.308 69.7528 33.4506 69.8562 33.471Z" fill="#263238"/>
<path d="M72.1565 31.4433C72.0958 31.4478 72.0262 31.4478 71.9521 31.4501C71.8442 31.7013 71.7521 32.0226 71.6847 32.4345C71.5365 33.3398 71.8397 34.0232 72.1745 34.4781C72.635 35.2656 73.2258 35.2453 73.7357 34.6433C74.5579 33.8467 75.3509 32.2603 73.7155 31.0156C73.4594 31.2373 72.9742 31.398 72.1565 31.4455V31.4433Z" fill="#263238"/>
<path d="M73.3022 34.1748C72.9315 34.0209 72.5114 34.202 72.1767 34.4758C71.9858 34.632 71.824 34.8175 71.714 34.9895C71.3972 35.4897 71.5095 36.0713 72.0779 36.1211C72.1093 36.1233 72.1408 36.1256 72.1767 36.1256C72.2216 36.1256 72.2666 36.1211 72.3115 36.1165C72.7136 36.0781 73.1606 35.8948 73.4954 35.5508C73.7492 35.2883 73.8323 34.9352 73.738 34.641C73.6751 34.4419 73.5335 34.2699 73.3022 34.1748Z" fill="#7F3E3B"/>
<path d="M68.8252 30.6263C69.6473 31.2487 71.1434 31.4523 71.9521 31.4478C72.0263 31.4478 72.0959 31.4456 72.1566 31.441C72.9743 31.3935 73.4595 31.2328 73.7156 31.011C74.6658 30.1918 72.5003 28.5307 72.5003 28.5307C72.5003 28.5307 72.7406 29.1282 72.2374 29.2911C71.7342 29.4563 68.1872 28.1256 68.2456 29.6351C68.2546 29.8591 68.3265 30.056 68.441 30.2303C68.5376 30.3774 68.6679 30.5086 68.8229 30.6263H68.8252Z" fill="#263238"/>
<path d="M65.0107 57.652C65.0107 57.652 64.9501 58.1793 64.8557 59.0687C66.5697 59.6526 68.4028 59.974 70.3122 59.974C72.1138 59.974 73.848 59.6911 75.4767 59.1683C75.5014 58.0933 75.5149 57.4529 75.5149 57.4529L68.8431 57.5796H68.7128L65.0085 57.652H65.0107Z" fill="#263238"/>
<path d="M82.3798 48.5386C82.3618 48.3485 82.3169 48.1562 82.2495 47.9751C82.2158 47.8869 82.1799 47.7941 82.135 47.7126L82.0676 47.5882L82.0316 47.527C81.7126 46.9703 81.3644 46.443 81.0005 45.9338L78.9608 47.9163C79.2326 48.2558 79.4932 48.5952 79.7358 48.9437C79.7021 49.0343 79.6437 49.1497 79.5628 49.2696C79.2955 49.6679 78.8912 50.1092 78.4509 50.5166C77.6152 51.2996 76.6448 52.0487 75.6878 52.7638L75.3756 52.8068L74.1221 52.9788L72.8888 53.8162L73.6997 55.4795L74.7196 54.9545C74.7196 54.9545 75.0611 54.9138 75.4362 54.7848C75.7822 54.6648 76.1551 54.4702 76.319 54.1556C76.9278 53.9157 77.4962 53.6464 78.0712 53.35C78.6733 53.0354 79.2641 52.6869 79.8436 52.2908C80.1334 52.0894 80.4187 51.8744 80.7018 51.6345C80.9848 51.3969 81.2656 51.1344 81.5352 50.813C81.8002 50.4872 82.0766 50.1183 82.2675 49.5525C82.3596 49.2719 82.418 48.9188 82.3798 48.5386ZM79.7538 48.894C79.7538 48.8826 79.7493 48.8691 79.7493 48.86C79.7493 48.8057 79.7673 48.7853 79.7673 48.817C79.7673 48.8328 79.7628 48.86 79.7538 48.894Z" fill="#7F3E3B"/>
<path d="M60.1521 55.2285C60.6978 51.8419 58.415 48.6509 55.0534 48.1012C51.6918 47.5515 48.5244 49.8512 47.9787 53.2378C47.4331 56.6243 49.7158 59.8153 53.0774 60.365C56.439 60.9148 59.6065 58.615 60.1521 55.2285Z" fill="#263238"/>
<path d="M57.454 53.6487H54.6415V50.8153C54.6415 50.4962 54.3809 50.2337 54.0642 50.2337C53.7474 50.2337 53.4869 50.4962 53.4869 50.8153V53.6487H50.6744C50.3576 53.6487 50.097 53.9112 50.097 54.2303C50.097 54.5494 50.3576 54.8119 50.6744 54.8119H53.4869V57.6453C53.4869 57.9644 53.7474 58.2269 54.0642 58.2269C54.3809 58.2269 54.6415 57.9644 54.6415 57.6453V54.8119H57.454C57.7707 54.8119 58.0313 54.5494 58.0313 54.2303C58.0313 53.9112 57.7707 53.6487 57.454 53.6487Z" fill="white"/>
<path d="M70.1932 32.2942C70.2112 32.2965 70.5391 32.3486 70.7031 32.7152C70.7188 32.7491 70.7525 32.7718 70.7885 32.7695C70.802 32.7695 70.8132 32.7672 70.8244 32.7604C70.8716 32.7378 70.8918 32.6835 70.8693 32.636C70.6582 32.1698 70.2314 32.1109 70.2134 32.1087C70.164 32.1019 70.1168 32.1381 70.1101 32.1901C70.1033 32.2422 70.1393 32.2874 70.1909 32.2942H70.1932Z" fill="#263238"/>
</g>
<defs>
<clipPath id="clip0_13_111">
<rect width="89" height="80" fill="white"/>
</clipPath>
</defs>
</svg>
