<?xml version="1.0" encoding="UTF-8"?>
<svg id="Camada_2" data-name="Camada 2" xmlns="http://www.w3.org/2000/svg" viewBox="0 0 485.61 357.79">
  <defs>
    <style>
      .cls-1 {
        fill: #e55933;
        stroke-width: 0px;
      }
    </style>
  </defs>
  <g id="svg2">
    <g id="layer1">
      <g>
        <path class="cls-1" d="m102.82,36.65h-37.39c-9.32,0-16.84,7.18-16.84,16.17h70.99c0-8.99-7.45-16.17-16.77-16.17Z"/>
        <path class="cls-1" d="m450,57.64h-40.43c-46.71-1.18-45.36-57.64-98.44-57.64h-34.35c-53.09,0-51.73,56.46-98.44,57.64H35.61C15.88,57.64,0,73.52,0,93.25v228.93c0,19.73,15.88,35.61,35.61,35.61h414.39c19.73,0,35.61-15.88,35.61-35.61V93.25c0-19.73-15.88-35.61-35.61-35.61Zm-186.7-28.82c0-9.44,7.65-17.09,17.09-17.09h27.13c9.44,0,17.09,7.65,17.09,17.09h0c0,9.44-7.65,17.09-17.09,17.09h-27.13c-9.44,0-17.09-7.65-17.09-17.09h0Zm134.37,224.55c-5.67,13.41-13.79,25.45-24.12,35.78-10.34,10.34-22.37,18.45-35.78,24.12-13.89,5.87-28.63,8.85-43.83,8.85s-29.94-2.98-43.83-8.85c-13.41-5.67-25.45-13.79-35.78-24.12-10.34-10.34-18.45-22.37-24.12-35.78-5.87-13.89-8.85-28.63-8.85-43.83s2.98-29.94,8.85-43.83c5.67-13.41,13.79-25.45,24.12-35.78,10.34-10.34,22.37-18.45,35.78-24.12,13.89-5.87,28.63-8.85,43.83-8.85s29.94,2.98,43.83,8.85c13.41,5.67,25.45,13.79,35.78,24.12,10.34,10.34,18.45,22.37,24.12,35.78,5.87,13.89,8.85,28.63,8.85,43.83s-2.98,29.94-8.85,43.83Z"/>
        <path class="cls-1" d="m293.94,120.68c-20.66,0-39.69,7.08-54.8,18.95,10.43.99,18.59,9.77,18.59,20.46,0,11.35-9.2,20.56-20.56,20.56-9.72,0-17.87-6.75-20.01-15.82-7.68,13.14-12.09,28.42-12.09,44.71,0,49,39.87,88.87,88.87,88.87s88.87-39.87,88.87-88.87-39.87-88.87-88.87-88.87Zm-20.24,80c-4.35,0-7.88-3.53-7.88-7.88s3.53-7.88,7.88-7.88,7.88,3.53,7.88,7.88-3.53,7.88-7.88,7.88Zm103.65-3.27s0,0,0,0c.16,2.18.32,4.4.32,6.62,0,49.43-39.97,89.33-89.4,89.33-2.25,0-4.47-.09-6.68-.26,50.74-4.66,91.1-44.96,95.76-95.7,0,0,0,0,0,0h0Z"/>
        <polygon class="cls-1" points="377.35 197.41 377.35 197.41 377.35 197.41 377.35 197.41"/>
      </g>
    </g>
  </g>
</svg>