<svg width="520" height="519" viewBox="0 0 520 519" fill="none" xmlns="http://www.w3.org/2000/svg">
<path d="M417.95 356.5H102.05V502H417.95V356.5Z" fill="#F9E7DB"/>
<path d="M417.95 356.5H102.05V502H417.95V356.5Z" fill="#006633"/>
<path d="M417.95 356.5H102.05V502H417.95V356.5Z" fill="#E55933"/>
<path d="M430.1 17H89.8999V211H430.1V17Z" fill="#F9E7DB"/>
<path d="M430.1 17H89.8999V211H430.1V17Z" fill="#006633"/>
<path d="M430.1 17H89.8999V211H430.1V17Z" fill="#E55933"/>
<path d="M417.95 356.5H102.05V502H417.95V356.5Z" stroke="#F9E7DB" stroke-width="33.739" stroke-linejoin="round"/>
<path d="M417.95 356.5H102.05V502H417.95V356.5Z" stroke="#006633" stroke-width="33.739" stroke-linejoin="round"/>
<path d="M417.95 356.5H102.05V502H417.95V356.5Z" stroke="#E55933" stroke-width="33.739" stroke-linejoin="round"/>
<path fill-rule="evenodd" clip-rule="evenodd" d="M17 211H503V429.25H418.16V356.5H101.813V429.25H17V211Z" stroke="#F9E7DB" stroke-width="33.739" stroke-linejoin="round"/>
<path fill-rule="evenodd" clip-rule="evenodd" d="M17 211H503V429.25H418.16V356.5H101.813V429.25H17V211Z" stroke="#006633" stroke-width="33.739" stroke-linejoin="round"/>
<path fill-rule="evenodd" clip-rule="evenodd" d="M17 211H503V429.25H418.16V356.5H101.813V429.25H17V211Z" stroke="#E55933" stroke-width="33.739" stroke-linejoin="round"/>
<path d="M430.1 17H89.8999V211H430.1V17Z" stroke="#F9E7DB" stroke-width="33.739" stroke-linejoin="round"/>
<path d="M430.1 17H89.8999V211H430.1V17Z" stroke="#006633" stroke-width="33.739" stroke-linejoin="round"/>
<path d="M430.1 17H89.8999V211H430.1V17Z" stroke="#E55933" stroke-width="33.739" stroke-linejoin="round"/>
</svg>
