<?xml version="1.0" encoding="UTF-8"?>
<svg xmlns="http://www.w3.org/2000/svg" xmlns:xlink="http://www.w3.org/1999/xlink" viewBox="0 0 2805.2 2783.56">
  <defs>
    <style>
      .cls-1 {
        opacity: .6;
      }

      .cls-1, .cls-2, .cls-3, .cls-4, .cls-5, .cls-6, .cls-7, .cls-8, .cls-9, .cls-10, .cls-11, .cls-12, .cls-13, .cls-14, .cls-15, .cls-16, .cls-17, .cls-18, .cls-19 {
        stroke-width: 0px;
      }

      .cls-1, .cls-9, .cls-10 {
        fill: #fff;
      }

      .cls-1, .cls-10 {
        mix-blend-mode: soft-light;
      }

      .cls-2 {
        fill: url(#linear-gradient-12);
      }

      .cls-3 {
        fill: url(#linear-gradient);
      }

      .cls-4 {
        fill: url(#linear-gradient-6);
      }

      .cls-5 {
        fill: #bdd0fb;
      }

      .cls-20 {
        isolation: isolate;
      }

      .cls-6 {
        fill: url(#linear-gradient-11);
      }

      .cls-7 {
        fill: url(#linear-gradient-5);
      }

      .cls-8 {
        fill: url(#linear-gradient-13);
      }

      .cls-21 {
        opacity: .3;
      }

      .cls-10 {
        opacity: .61;
      }

      .cls-11 {
        fill: url(#linear-gradient-14);
      }

      .cls-12 {
        fill: url(#linear-gradient-2);
      }

      .cls-13 {
        fill: url(#linear-gradient-7);
      }

      .cls-14 {
        fill: url(#linear-gradient-3);
      }

      .cls-15 {
        fill: url(#linear-gradient-9);
      }

      .cls-16 {
        fill: url(#linear-gradient-8);
      }

      .cls-17 {
        fill: #91b3fa;
      }

      .cls-18 {
        fill: url(#linear-gradient-10);
      }

      .cls-19 {
        fill: url(#linear-gradient-4);
      }

      .cls-22 {
        opacity: .59;
      }
    </style>
    <linearGradient id="linear-gradient" x1="2961.17" y1="3152.43" x2="907.65" y2="935.92" gradientUnits="userSpaceOnUse">
      <stop offset="0" stop-color="#dae3fe"/>
      <stop offset="1" stop-color="#e9effd"/>
    </linearGradient>
    <linearGradient id="linear-gradient-2" x1="1098.27" y1="1293.48" x2="3178.55" y2="2825.78" gradientUnits="userSpaceOnUse">
      <stop offset="0" stop-color="#e1473d"/>
      <stop offset="1" stop-color="#e9605a"/>
    </linearGradient>
    <linearGradient id="linear-gradient-3" x1="1015.93" y1="-449.51" x2="1585.7" y2="-449.51" gradientTransform="translate(491.53 523.01) rotate(14.81)" gradientUnits="userSpaceOnUse">
      <stop offset="0" stop-color="#4042e2"/>
      <stop offset="1" stop-color="#4f52ff"/>
    </linearGradient>
    <linearGradient id="linear-gradient-4" x1="1613.4" y1="-599.58" x2="1646.67" y2="-599.58" xlink:href="#linear-gradient-3"/>
    <linearGradient id="linear-gradient-5" x1="1786.12" y1="-345.31" x2="1808.96" y2="-345.31" xlink:href="#linear-gradient-3"/>
    <linearGradient id="linear-gradient-6" x1="1226.96" y1="-85.57" x2="1813.84" y2="-85.57" xlink:href="#linear-gradient-3"/>
    <linearGradient id="linear-gradient-7" x1="1168.46" y1="38.14" x2="1201.31" y2="38.14" xlink:href="#linear-gradient-3"/>
    <linearGradient id="linear-gradient-8" x1="2767.79" y1="315.24" x2="674.39" y2="-603.82" xlink:href="#linear-gradient-3"/>
    <linearGradient id="linear-gradient-9" x1="677" y1="25.05" x2="693.24" y2="25.05" xlink:href="#linear-gradient-3"/>
    <linearGradient id="linear-gradient-10" x1="670.42" y1="-157.4" x2="988.72" y2="-157.4" xlink:href="#linear-gradient-3"/>
    <linearGradient id="linear-gradient-11" x1="812.48" y1="147.73" x2="1175.77" y2="147.73" xlink:href="#linear-gradient-3"/>
    <linearGradient id="linear-gradient-12" x1="772.54" y1="170.46" x2="797.39" y2="170.46" xlink:href="#linear-gradient-3"/>
    <linearGradient id="linear-gradient-13" x1="2603.55" y1="688.77" x2="510.15" y2="-230.28" xlink:href="#linear-gradient-3"/>
    <linearGradient id="linear-gradient-14" x1="809.33" y1="2182.09" x2="2978.81" y2="523.69" gradientUnits="userSpaceOnUse">
      <stop offset="0" stop-color="#fe7062"/>
      <stop offset="1" stop-color="#ff928e"/>
    </linearGradient>
  </defs>
  <g class="cls-20">
    <g id="Camada_2" data-name="Camada 2">
      <g id="Illustration">
        <g>
          <path class="cls-3" d="m2680.6,1887.29c-283.44,656.96-1031.63,939.14-1617.85,891.03-160.06-13.14-482.11-39.57-733.56-275.37-482.91-452.85-408.53-1399.42,53.75-1956.71C442.47,474.46,854.54-6.37,1496.68.06c470.14,4.71,800.12,268.06,840.25,300.87,50.69,41.45,162.49,139.93,263.24,296.18,236.74,367.12,257.55,879.63,80.43,1290.17Z"/>
          <g>
            <path class="cls-9" d="m2279.01,2394.87l5.74-4.09c1.78-1.27,2.21-3.76.96-5.56-1.25-1.81-3.7-2.24-5.48-.98h-.02s-.07.06-.07.06l-5.58,4.02-.07.05c-1.77,1.27-2.18,3.75-.93,5.55,1.25,1.79,3.68,2.23,5.44.96Z"/>
            <path class="cls-9" d="m2297.79,2380.78l5.43-4.48c1.71-1.41,1.97-3.96.58-5.7-1.39-1.74-3.9-2-5.61-.59h-.02s-.06.07-.06.07l-5.28,4.4-.06.05c-1.7,1.41-1.94,3.96-.55,5.68,1.39,1.72,3.88,1.99,5.58.57Z"/>
            <path class="cls-9" d="m2315.53,2365.4l5.11-4.85c1.63-1.55,1.72-4.15.19-5.81-1.53-1.66-4.09-1.75-5.72-.2h-.01s-.06.07-.06.07l-4.97,4.76-.06.06c-1.62,1.55-1.69,4.14-.16,5.79,1.53,1.64,4.07,1.73,5.68.18Z"/>
            <path class="cls-9" d="m2332.19,2348.81l4.77-5.2c1.55-1.69,1.45-4.32-.21-5.89-1.66-1.57-4.26-1.48-5.8.21v.02s-.07.06-.07.06l-4.63,5.1-.06.06c-1.53,1.69-1.43,4.31.23,5.87,1.66,1.55,4.23,1.46,5.76-.22Z"/>
            <path class="cls-9" d="m2347.68,2331.08l4.41-5.53c1.45-1.81,1.17-4.48-.61-5.95-1.79-1.47-4.41-1.19-5.86.62v.02s-.07.07-.07.07l-4.27,5.41-.05.07c-1.43,1.81-1.15,4.46.64,5.92,1.79,1.45,4.38,1.18,5.82-.63Z"/>
            <path class="cls-9" d="m2361.93,2312.3l4.02-5.83c1.34-1.94.87-4.61-1.04-5.97-1.91-1.36-4.54-.89-5.88,1.05v.02s-.06.07-.06.07l-3.89,5.7-.05.07c-1.32,1.94-.85,4.6,1.06,5.94,1.91,1.34,4.51.88,5.84-1.06Z"/>
            <path class="cls-9" d="m2374.85,2292.55l3.6-6.1c1.22-2.06.56-4.73-1.47-5.96-2.03-1.23-4.65-.57-5.87,1.49v.02s-.06.08-.06.08l-3.48,5.96-.05.08c-1.2,2.06-.53,4.71,1.49,5.93,2.02,1.22,4.63.56,5.83-1.5Z"/>
            <path class="cls-9" d="m2386.35,2271.9l3.16-6.36c1.08-2.17.22-4.82-1.92-5.91-2.14-1.1-4.74-.22-5.82,1.95v.02s-.05.09-.05.09l-3.04,6.2-.04.09c-1.06,2.17-.2,4.8,1.94,5.88,2.13,1.08,4.72.22,5.78-1.95Z"/>
            <path class="cls-9" d="m2396.34,2250.43l2.69-6.59c.93-2.28-.13-4.89-2.38-5.83-2.24-.94-4.81.14-5.74,2.41v.02s-.05.09-.05.09l-2.58,6.41-.04.09c-.91,2.27.16,4.87,2.39,5.79,2.24.93,4.78-.14,5.7-2.41Z"/>
            <path class="cls-9" d="m2404.72,2228.26l2.18-6.77c.76-2.37-.51-4.92-2.85-5.7-2.34-.78-4.85.52-5.61,2.89v.02s-.04.1-.04.1l-2.08,6.58-.03.1c-.75,2.37.53,4.9,2.86,5.66,2.33.76,4.82-.52,5.57-2.89Z"/>
            <path class="cls-9" d="m2411.37,2205.48l1.65-6.94c.58-2.46-.91-4.93-3.33-5.52-2.42-.59-4.85.92-5.44,3.38v.02s-.03.11-.03.11l-1.56,6.73-.03.11c-.57,2.45.93,4.91,3.34,5.48,2.41.58,4.83-.92,5.4-3.37Z"/>
            <path class="cls-9" d="m2416.21,2182.2l1.08-7.04c.39-2.53-1.32-4.9-3.81-5.29-2.49-.39-4.82,1.34-5.21,3.87v.02s-.02.11-.02.11l-1.01,6.82-.02.11c-.37,2.52,1.34,4.87,3.82,5.25,2.48.38,4.8-1.33,5.17-3.86Z"/>
            <path class="cls-9" d="m2419.13,2158.61l.49-7.13c.18-2.59-1.74-4.83-4.29-5.01-2.55-.18-4.75,1.77-4.93,4.36v.02s0,.12,0,.12l-.44,6.89v.12c-.17,2.58,1.75,4.8,4.29,4.97,2.54.17,4.73-1.76,4.89-4.34Z"/>
            <path class="cls-9" d="m2420.02,2134.79l-.15-7.15c-.05-2.62-2.19-4.71-4.77-4.65s-4.63,2.23-4.58,4.85v.02s0,.13,0,.13l.17,6.89v.13c.07,2.61,2.21,4.68,4.78,4.61,2.57-.07,4.61-2.22,4.54-4.83Z"/>
            <path class="cls-9" d="m2418.8,2110.99l-.77-7.11c-.28-2.64-2.62-4.55-5.22-4.26-2.6.29-4.48,2.67-4.19,5.31v.02s.02.12.02.12l.77,6.85v.13c.31,2.63,2.65,4.52,5.24,4.22,2.59-.3,4.45-2.65,4.15-5.28Z"/>
            <path class="cls-9" d="m2415.54,2087.4l-1.37-7.01c-.51-2.64-3.04-4.35-5.63-3.83-2.6.52-4.29,3.08-3.77,5.72v.02s.03.12.03.12l1.35,6.76.02.12c.53,2.63,3.05,4.32,5.63,3.79,2.59-.53,4.26-3.07,3.73-5.7Z"/>
            <path class="cls-9" d="m2410.3,2064.17l-1.95-6.87c-.74-2.61-3.43-4.12-6.01-3.37-2.57.75-4.06,3.48-3.32,6.1v.02s.04.12.04.12l1.91,6.62.03.12c.75,2.6,3.44,4.09,6,3.33,2.56-.76,4.03-3.47,3.28-6.07Z"/>
            <path class="cls-9" d="m2403.13,2041.48l-2.52-6.68c-.97-2.57-3.81-3.86-6.34-2.87-2.53.98-3.8,3.87-2.83,6.44v.02s.05.12.05.12l2.46,6.43.04.12c.98,2.56,3.81,3.82,6.33,2.83,2.52-.99,3.77-3.85,2.8-6.41Z"/>
            <path class="cls-9" d="m2394.09,2019.49l-3.07-6.44c-1.2-2.51-4.17-3.55-6.63-2.34-2.47,1.21-3.5,4.23-2.31,6.74v.02s.07.12.07.12l2.99,6.19.06.12c1.2,2.49,4.17,3.52,6.62,2.3,2.45-1.22,3.48-4.21,2.27-6.7Z"/>
            <path class="cls-9" d="m2383.22,1998.35l-3.61-6.15c-1.42-2.42-4.5-3.21-6.89-1.77-2.38,1.44-3.16,4.57-1.74,6.99v.02s.08.11.08.11l3.5,5.9.07.12c1.43,2.4,4.5,3.18,6.87,1.73,2.37-1.45,3.14-4.55,1.71-6.96Z"/>
            <path class="cls-9" d="m2370.56,1978.24l-4.14-5.81c-1.65-2.31-4.82-2.82-7.09-1.15-2.27,1.67-2.78,4.9-1.13,7.21v.02s.1.11.1.11l4.01,5.56.08.11c1.65,2.29,4.82,2.79,7.08,1.11,2.26-1.68,2.76-4.87,1.11-7.17Z"/>
            <path class="cls-9" d="m2356.16,1959.35l-4.65-5.39c-1.87-2.17-5.12-2.39-7.25-.49-2.13,1.9-2.35,5.19-.48,7.36l.02.02.1.11,4.48,5.15.1.11c1.87,2.15,5.11,2.35,7.23.45,2.12-1.9,2.33-5.17.46-7.32Z"/>
            <path class="cls-9" d="m2340.07,1941.9l-5.14-4.92c-2.09-2-5.38-1.9-7.34.22-1.97,2.12-1.87,5.46.22,7.46l.02.02.11.11,4.95,4.69.11.11c2.09,1.98,5.37,1.87,7.32-.26,1.95-2.12,1.86-5.43-.23-7.41Z"/>
            <path class="cls-9" d="m2322.38,1926.1l-5.61-4.39c-2.3-1.8-5.6-1.36-7.37.97-1.77,2.33-1.34,5.68.96,7.48l.02.02.13.1,5.37,4.16.13.1c2.3,1.78,5.58,1.33,7.34-1.01,1.75-2.34,1.33-5.65-.97-7.43Z"/>
            <path class="cls-9" d="m2303.18,1912.17l-6.02-3.78c-2.5-1.56-5.77-.78-7.31,1.76-1.54,2.53-.77,5.86,1.73,7.42h.02s.14.1.14.1l5.76,3.57.14.09c2.49,1.55,5.75.75,7.27-1.79,1.52-2.53.76-5.83-1.74-7.37Z"/>
            <path class="cls-9" d="m2282.67,1900.34l-6.36-3.13c-2.67-1.31-5.88-.18-7.17,2.53-1.29,2.71-.18,5.97,2.49,7.28h.02s.14.08.14.08l6.1,2.96.14.07c2.66,1.3,5.86.15,7.14-2.55,1.28-2.71.17-5.94-2.49-7.23Z"/>
            <path class="cls-9" d="m2261.14,1890.62l-6.62-2.51c-2.81-1.06-5.93.39-6.98,3.24-1.05,2.85.38,6.02,3.19,7.09h.03s.14.06.14.06l6.35,2.37.14.05c2.8,1.05,5.91-.41,6.94-3.26,1.03-2.85-.38-5.99-3.19-7.04Z"/>
            <path class="cls-9" d="m2238.84,1882.98l-6.8-1.9c-2.92-.82-5.94.93-6.74,3.89-.8,2.96.91,6.03,3.83,6.84h.03s.13.04.13.04l6.54,1.79.14.04c2.91.8,5.91-.95,6.7-3.91.79-2.96-.91-6-3.83-6.8Z"/>
            <path class="cls-9" d="m2216,1877.34l-6.93-1.32c-2.99-.57-5.87,1.43-6.43,4.47-.56,3.04,1.41,5.96,4.4,6.53h.01s.13.03.13.03l6.67,1.25.13.02c2.99.56,5.86-1.45,6.41-4.48.55-3.04-1.41-5.95-4.4-6.51Z"/>
            <path class="cls-9" d="m2192.81,1873.59l-7-.78c-3.04-.34-5.78,1.89-6.11,4.98-.33,3.09,1.86,5.87,4.91,6.2h.01s.12.01.12.01l6.76.73h.12c3.04.34,5.76-1.89,6.09-4.98.32-3.09-1.86-5.85-4.9-6.18Z"/>
            <path class="cls-9" d="m2169.45,1871.6l-7.03-.27c-3.07-.12-5.66,2.32-5.78,5.44-.12,3.12,2.28,5.75,5.35,5.87h.01s.11,0,.11,0l6.8.25h.11c3.07.12,5.65-2.32,5.75-5.44.11-3.12-2.28-5.73-5.35-5.84Z"/>
            <path class="cls-9" d="m2146.02,1871.25l-7.02.2c-3.09.09-5.52,2.7-5.44,5.84.09,3.14,2.66,5.61,5.75,5.52h.01s.11,0,.11,0l6.81-.21h.11c3.09-.1,5.51-2.72,5.42-5.85-.09-3.13-2.66-5.6-5.74-5.5Z"/>
            <path class="cls-9" d="m2122.65,1872.44l-7,.64c-3.09.28-5.37,3.06-5.09,6.2.28,3.14,3.02,5.46,6.11,5.17h.01s.1-.01.1-.01l6.8-.64h.1c3.09-.3,5.36-3.08,5.07-6.22-.29-3.14-3.01-5.44-6.1-5.15Z"/>
            <path class="cls-9" d="m2099.39,1875.08l-6.93,1.06c-3.09.47-5.21,3.4-4.75,6.53.46,3.14,3.34,5.3,6.43,4.82h.01s.09-.02.09-.02l6.74-1.05h.09c3.08-.49,5.2-3.42,4.73-6.55-.47-3.13-3.34-5.28-6.42-4.8Z"/>
            <path class="cls-9" d="m2076.37,1879.04l-6.86,1.42c-3.07.64-5.06,3.68-4.44,6.8.63,3.12,3.62,5.14,6.7,4.5h.01s.08-.02.08-.02l6.69-1.4.08-.02c3.07-.64,5.04-3.69,4.41-6.8-.63-3.12-3.62-5.13-6.69-4.48Z"/>
            <path class="cls-9" d="m2053.6,1884.14l-6.78,1.73c-3.06.78-4.91,3.93-4.14,7.04.77,3.11,3.87,4.99,6.93,4.21h.01s.07-.02.07-.02l6.63-1.71.07-.02c3.05-.79,4.89-3.94,4.12-7.04-.78-3.1-3.87-4.97-6.92-4.19Z"/>
            <path class="cls-9" d="m2031.1,1890.26l-6.7,2.01c-3.04.91-4.77,4.15-3.87,7.24.9,3.09,4.09,4.85,7.13,3.93h.01s.06-.02.06-.02l6.56-1.99.06-.02c3.03-.92,4.76-4.16,3.85-7.24s-4.08-4.83-7.12-3.91Z"/>
            <path class="cls-9" d="m2008.88,1897.25l-6.6,2.25c-3.02,1.03-4.65,4.35-3.64,7.41,1.01,3.07,4.28,4.72,7.3,3.69h.01s.05-.02.05-.02l6.49-2.23.05-.02c3.01-1.03,4.63-4.35,3.61-7.41-1.02-3.06-4.27-4.71-7.28-3.67Z"/>
            <path class="cls-9" d="m1986.94,1904.98l-6.53,2.45c-3,1.12-4.54,4.51-3.43,7.56,1.11,3.05,4.44,4.61,7.44,3.48h.01s.04-.02.04-.02l6.44-2.43.05-.02c3-1.13,4.52-4.51,3.41-7.55-1.11-3.04-4.43-4.6-7.42-3.47Z"/>
            <path class="cls-9" d="m1965.24,1913.34l-6.47,2.61c-2.99,1.21-4.45,4.64-3.26,7.68,1.19,3.03,4.57,4.52,7.56,3.31h.01s.04-.02.04-.02l6.39-2.6h.04c2.98-1.23,4.43-4.66,3.24-7.69-1.19-3.03-4.56-4.51-7.54-3.29Z"/>
            <path class="cls-9" d="m1943.75,1922.19l-6.41,2.74c-2.98,1.27-4.38,4.75-3.13,7.78,1.25,3.02,4.68,4.45,7.66,3.17h.01s.03-.02.03-.02l6.35-2.73h.03c2.97-1.29,4.36-4.77,3.1-7.79-1.26-3.02-4.67-4.43-7.64-3.16Z"/>
            <path class="cls-9" d="m1922.45,1931.42l-6.36,2.83c-2.97,1.32-4.33,4.84-3.03,7.86,1.3,3.02,4.77,4.4,7.74,3.07h.01s.02-.01.02-.01l6.31-2.82h.02c2.97-1.34,4.31-4.85,3-7.87-1.31-3.01-4.76-4.38-7.73-3.06Z"/>
            <path class="cls-9" d="m1901.31,1940.92l-6.32,2.89c-2.97,1.36-4.3,4.91-2.96,7.93,1.34,3.02,4.84,4.37,7.81,3.01h.01s.02-.01.02-.01l6.28-2.89h.02c2.97-1.37,4.28-4.92,2.94-7.93-1.34-3.01-4.83-4.35-7.79-2.99Z"/>
            <path class="cls-9" d="m1880.27,1950.62l-6.29,2.95c-2.98,1.39-4.27,4.97-2.9,8,1.37,3.02,4.9,4.34,7.87,2.95h.01s.01-.01.01-.01l6.26-2.95h.01c2.97-1.41,4.26-4.98,2.88-8-1.38-3.01-4.89-4.33-7.86-2.93Z"/>
            <path class="cls-9" d="m1859.32,1960.52l-6.27,3c-2.98,1.43-4.25,5.03-2.85,8.06,1.4,3.02,4.96,4.32,7.93,2.89h.01s.01-.01.01-.01l6.23-3h.01c2.97-1.44,4.24-5.04,2.83-8.06-1.41-3.02-4.95-4.31-7.92-2.88Z"/>
            <path class="cls-9" d="m1838.46,1970.57l-6.24,3.05c-2.98,1.46-4.24,5.09-2.81,8.12,1.43,3.03,5.01,4.3,7.99,2.85h.01s.01-.01.01-.01l6.21-3.05h.01c2.97-1.47,4.22-5.1,2.78-8.12-1.44-3.02-5-4.29-7.98-2.83Z"/>
            <path class="cls-9" d="m1817.67,1980.77l-6.22,3.09c-2.99,1.48-4.23,5.14-2.77,8.17,1.46,3.03,5.06,4.29,8.05,2.81h.02s6.2-3.1,6.2-3.1c2.98-1.48,4.22-5.14,2.76-8.16-1.46-3.03-5.05-4.28-8.04-2.8Z"/>
            <path class="cls-9" d="m1796.95,1991.1l-6.21,3.12c-2.99,1.5-4.22,5.19-2.74,8.23,1.48,3.04,5.11,4.28,8.1,2.78h.02s6.18-3.14,6.18-3.14c2.99-1.51,4.21-5.18,2.72-8.22-1.48-3.03-5.1-4.28-8.09-2.77Z"/>
            <path class="cls-9" d="m1776.28,2001.54l-6.19,3.15c-3,1.53-4.21,5.23-2.71,8.28,1.5,3.05,5.15,4.28,8.15,2.75h.02s6.17-3.17,6.17-3.17c2.99-1.53,4.2-5.23,2.7-8.27-1.5-3.04-5.14-4.27-8.14-2.74Z"/>
            <path class="cls-9" d="m1755.66,2012.06l-6.18,3.17c-3.01,1.54-4.21,5.27-2.7,8.33,1.52,3.06,5.19,4.28,8.2,2.74h.02s6.16-3.19,6.16-3.19c3-1.55,4.2-5.27,2.68-8.32-1.52-3.05-5.18-4.27-8.18-2.72Z"/>
            <path class="cls-9" d="m1735.07,2022.65l-6.17,3.19c-3.02,1.56-4.22,5.31-2.69,8.37,1.54,3.07,5.23,4.29,8.24,2.73h.02s6.15-3.21,6.15-3.21c3.01-1.56,4.21-5.31,2.67-8.36-1.54-3.06-5.22-4.28-8.23-2.71Z"/>
            <path class="cls-9" d="m1714.51,2033.28l-6.16,3.2c-3.03,1.57-4.23,5.34-2.68,8.42,1.55,3.08,5.26,4.3,8.29,2.72h.02s6.15-3.22,6.15-3.22c3.02-1.58,4.21-5.34,2.66-8.41-1.55-3.07-5.25-4.29-8.27-2.71Z"/>
            <path class="cls-9" d="m1693.98,2043.95l-6.16,3.2c-3.04,1.58-4.25,5.37-2.69,8.46,1.56,3.09,5.28,4.31,8.33,2.73h.01s6.15-3.22,6.15-3.22c3.03-1.59,4.23-5.37,2.67-8.45-1.56-3.08-5.27-4.3-8.31-2.71Z"/>
            <path class="cls-9" d="m1673.45,2054.62l-6.16,3.2c-3.06,1.59-4.27,5.39-2.7,8.49,1.56,3.1,5.31,4.33,8.36,2.75h.01s6.15-3.22,6.15-3.22c3.05-1.59,4.25-5.39,2.68-8.49s-5.3-4.32-8.35-2.73Z"/>
            <path class="cls-9" d="m1652.92,2065.28l-6.16,3.19c-3.07,1.59-4.29,5.41-2.73,8.53,1.57,3.12,5.33,4.36,8.4,2.77h.02s6.16-3.22,6.16-3.22c3.06-1.6,4.27-5.41,2.7-8.52s-5.32-4.34-8.38-2.75Z"/>
            <path class="cls-9" d="m1632.38,2075.91l-6.16,3.18c-3.09,1.59-4.32,5.42-2.76,8.56,1.57,3.14,5.34,4.39,8.43,2.8h.02s6.17-3.21,6.17-3.21c3.08-1.6,4.3-5.43,2.73-8.56-1.57-3.13-5.34-4.37-8.42-2.78Z"/>
            <path class="cls-9" d="m1611.82,2086.48l-6.17,3.16c-3.11,1.59-4.36,5.43-2.8,8.59,1.56,3.16,5.35,4.43,8.46,2.84h.02s6.18-3.19,6.18-3.19c3.1-1.6,4.34-5.44,2.76-8.59-1.57-3.15-5.35-4.41-8.45-2.81Z"/>
            <path class="cls-9" d="m1591.24,2096.99l-6.18,3.13c-3.13,1.58-4.4,5.44-2.85,8.62,1.56,3.18,5.36,4.47,8.48,2.89h.02s6.19-3.17,6.19-3.17c3.12-1.59,4.38-5.45,2.81-8.61-1.57-3.17-5.36-4.45-8.48-2.86Z"/>
            <path class="cls-9" d="m1570.61,2107.4l-6.19,3.1c-3.15,1.57-4.45,5.44-2.9,8.64,1.55,3.2,5.36,4.52,8.51,2.95h.02s6.21-3.14,6.21-3.14c3.14-1.58,4.42-5.45,2.86-8.64-1.56-3.19-5.36-4.49-8.5-2.91Z"/>
            <path class="cls-9" d="m1549.95,2117.71l-6.21,3.07h-.01c-3.17,1.57-4.49,5.45-2.95,8.67,1.54,3.22,5.36,4.56,8.53,3h.01s6.22-3.1,6.22-3.1c3.16-1.57,4.47-5.45,2.92-8.66-1.55-3.21-5.37-4.54-8.53-2.97h0Z"/>
            <path class="cls-9" d="m1529.23,2127.88l-6.23,3.02h-.01c-3.19,1.56-4.55,5.44-3.02,8.69,1.53,3.24,5.36,4.62,8.55,3.07h.01s6.25-3.06,6.25-3.06c3.19-1.56,4.53-5.44,2.99-8.68-1.53-3.24-5.36-4.6-8.55-3.04h0Z"/>
            <path class="cls-9" d="m1508.45,2137.91l-6.24,2.98h-.01c-3.21,1.54-4.59,5.43-3.08,8.69,1.51,3.26,5.34,4.66,8.55,3.13h0s6.27-3,6.27-3c3.21-1.53,4.59-5.42,3.08-8.69-1.51-3.26-5.34-4.66-8.55-3.13h-.01Z"/>
            <path class="cls-9" d="m1487.6,2147.78l-6.27,2.93h-.02c-3.23,1.51-4.64,5.39-3.16,8.67,1.48,3.28,5.3,4.71,8.53,3.21h0s6.3-2.94,6.3-2.94c3.23-1.51,4.64-5.39,3.15-8.66-1.48-3.28-5.3-4.71-8.53-3.2h-.01Z"/>
            <path class="cls-9" d="m1466.68,2157.47l-6.29,2.87h-.02c-3.24,1.48-4.69,5.35-3.24,8.65,1.45,3.29,5.26,4.77,8.5,3.29h0s6.33-2.88,6.33-2.88c3.24-1.48,4.69-5.34,3.24-8.64-1.46-3.29-5.26-4.76-8.5-3.29h-.02Z"/>
            <path class="cls-9" d="m1445.67,2166.94l-6.33,2.8h-.02c-3.26,1.45-4.75,5.3-3.33,8.61,1.42,3.31,5.21,4.83,8.47,3.38h0s6.37-2.82,6.37-2.82c3.26-1.44,4.75-5.29,3.33-8.6-1.42-3.31-5.21-4.82-8.47-3.38h-.02Z"/>
            <path class="cls-9" d="m1424.55,2176.18l-6.35,2.72h-.02c-3.28,1.41-4.81,5.25-3.43,8.58,1.38,3.33,5.16,4.89,8.44,3.48h0s6.39-2.74,6.39-2.74c3.28-1.4,4.81-5.24,3.43-8.57-1.38-3.33-5.16-4.89-8.44-3.48h-.02Z"/>
            <path class="cls-9" d="m1403.35,2185.16l-6.38,2.64h-.02c-3.3,1.37-4.88,5.19-3.54,8.54,1.34,3.35,5.1,4.96,8.4,3.59h0s6.43-2.66,6.43-2.66c3.3-1.36,4.88-5.18,3.54-8.53-1.34-3.35-5.1-4.95-8.4-3.59h-.02Z"/>
            <path class="cls-9" d="m1382.03,2193.85l-6.42,2.55h-.02c-3.32,1.33-4.95,5.13-3.65,8.49,1.3,3.37,5.04,5.03,8.35,3.71h0s6.46-2.57,6.46-2.57c3.31-1.32,4.95-5.12,3.65-8.48-1.3-3.37-5.04-5.02-8.35-3.7h-.02Z"/>
            <path class="cls-9" d="m1360.61,2202.26l-6.45,2.46h-.03c-3.33,1.28-5.02,5.06-3.77,8.45,1.25,3.39,4.97,5.1,8.31,3.83h0s6.5-2.48,6.5-2.48c3.33-1.27,5.02-5.05,3.77-8.43-1.25-3.39-4.97-5.1-8.31-3.83h-.02Z"/>
            <path class="cls-9" d="m1339.07,2210.35l-6.48,2.36h-.03c-3.35,1.23-5.1,4.98-3.89,8.39,1.2,3.41,4.9,5.18,8.25,3.95h0s6.54-2.38,6.54-2.38c3.35-1.22,5.1-4.98,3.89-8.38-1.2-3.41-4.9-5.18-8.25-3.95h-.03Z"/>
            <path class="cls-9" d="m1317.43,2218.1l-6.52,2.26h-.03c-3.37,1.18-5.18,4.9-4.03,8.33,1.15,3.43,4.82,5.26,8.19,4.09h0s6.58-2.28,6.58-2.28c3.37-1.17,5.17-4.89,4.02-8.32s-4.82-5.26-8.19-4.09h-.03Z"/>
            <path class="cls-9" d="m1295.66,2225.5l-6.55,2.15h-.03c-3.4,1.12-5.26,4.82-4.16,8.27,1.1,3.45,4.73,5.34,8.13,4.23h0s6.61-2.17,6.61-2.17c3.39-1.11,5.26-4.81,4.16-8.26-1.1-3.45-4.74-5.34-8.13-4.23h-.03Z"/>
            <path class="cls-9" d="m1273.79,2232.51l-6.59,2.03h-.03c-3.41,1.06-5.34,4.73-4.31,8.19,1.04,3.47,4.64,5.43,8.06,4.37h0s6.65-2.05,6.65-2.05c3.41-1.05,5.34-4.72,4.3-8.18-1.04-3.47-4.64-5.42-8.06-4.37h-.03Z"/>
            <path class="cls-9" d="m1251.8,2239.13l-6.62,1.9h-.04c-3.43,1-5.43,4.63-4.46,8.12.97,3.49,4.55,5.52,7.98,4.53h0s6.69-1.93,6.69-1.93c3.43-.99,5.43-4.62,4.45-8.11-.97-3.49-4.55-5.51-7.98-4.52h-.03Z"/>
            <path class="cls-9" d="m1229.69,2245.33l-6.65,1.77h-.04c-3.45.93-5.52,4.52-4.61,8.03.91,3.51,4.44,5.61,7.9,4.69h0s6.73-1.8,6.73-1.8c3.45-.92,5.52-4.51,4.61-8.02-.91-3.51-4.44-5.6-7.9-4.68h-.04Z"/>
            <path class="cls-9" d="m1207.48,2251.08l-6.69,1.63h-.04c-3.47.86-5.61,4.41-4.78,7.94.84,3.53,4.33,5.7,7.8,4.85h0s6.76-1.66,6.76-1.66c3.47-.85,5.61-4.4,4.77-7.93-.84-3.53-4.33-5.7-7.8-4.85h-.04Z"/>
            <path class="cls-9" d="m1185.16,2256.36l-6.72,1.49h-.04c-3.49.78-5.71,4.29-4.94,7.83.76,3.55,4.21,5.8,7.7,5.02h0s6.8-1.51,6.8-1.51c3.49-.77,5.7-4.28,4.94-7.82-.76-3.55-4.21-5.79-7.7-5.02h-.04Z"/>
            <path class="cls-9" d="m1162.74,2261.15l-6.75,1.34h-.04c-3.51.7-5.8,4.16-5.12,7.72.68,3.57,4.08,5.89,7.59,5.2h0s6.84-1.36,6.84-1.36c3.51-.7,5.8-4.15,5.11-7.71-.68-3.56-4.09-5.89-7.59-5.19h-.04Z"/>
            <path class="cls-9" d="m1140.21,2265.41l-6.77,1.17h-.05c-3.53.62-5.9,4.02-5.3,7.6.6,3.58,3.95,5.99,7.48,5.38h0s6.86-1.19,6.86-1.19c3.53-.61,5.9-4.01,5.29-7.59-.6-3.58-3.95-5.99-7.48-5.38h-.04Z"/>
            <path class="cls-9" d="m1117.61,2269.13l-6.79,1.01h-.05c-3.54.53-6,3.87-5.48,7.47.52,3.6,3.81,6.09,7.35,5.56h0l6.89-1.02c3.54-.53,5.99-3.87,5.48-7.46-.52-3.6-3.81-6.09-7.35-5.56h-.05Z"/>
            <path class="cls-9" d="m1094.93,2272.28l-6.81.83h-.05c-3.56.44-6.09,3.72-5.67,7.33.43,3.61,3.65,6.19,7.21,5.75h0s6.91-.84,6.91-.84c3.56-.43,6.09-3.71,5.66-7.32-.43-3.61-3.66-6.19-7.21-5.75h-.05Z"/>
            <path class="cls-9" d="m1072.19,2274.84l-6.82.65h-.05c-3.57.34-6.19,3.55-5.86,7.18.33,3.62,3.49,6.29,7.06,5.95h0s6.93-.66,6.93-.66c3.57-.34,6.19-3.55,5.85-7.17-.33-3.62-3.5-6.28-7.06-5.95h-.05Z"/>
            <path class="cls-9" d="m1049.4,2276.77l-6.84.46h-.05c-3.58.24-6.29,3.38-6.05,7.01.24,3.63,3.33,6.38,6.9,6.14h0s6.94-.47,6.94-.47c3.58-.24,6.28-3.38,6.05-7.01-.24-3.63-3.33-6.38-6.9-6.14h-.05Z"/>
            <path class="cls-9" d="m1026.58,2278.07l-6.85.26h-.06c-3.58.14-6.38,3.2-6.25,6.84.13,3.64,3.15,6.48,6.73,6.34h0l6.96-.27c3.58-.14,6.38-3.2,6.24-6.84-.14-3.64-3.15-6.48-6.73-6.34h-.05Z"/>
            <path class="cls-9" d="m1003.73,2278.7l-6.85.06h-.06c-3.59.03-6.47,3.01-6.44,6.65.03,3.64,2.96,6.57,6.55,6.54h0l6.97-.06c3.59-.03,6.47-3.01,6.44-6.65-.03-3.64-2.96-6.57-6.55-6.54h-.06Z"/>
            <path class="cls-9" d="m980.88,2278.66l-6.86-.15h-.07c-3.59-.08-6.56,2.81-6.64,6.45-.08,3.64,2.77,6.66,6.36,6.74h0l6.98.15c3.59.08,6.56-2.81,6.64-6.46.08-3.64-2.77-6.66-6.36-6.74h-.06Z"/>
            <path class="cls-9" d="m958.05,2277.88l-6.84-.39h-.07c-3.58-.21-6.65,2.58-6.85,6.22-.2,3.64,2.55,6.76,6.13,6.96h0l6.97.39c3.58.2,6.65-2.59,6.85-6.23.2-3.64-2.55-6.76-6.13-6.96h-.06Z"/>
            <path class="cls-9" d="m935.26,2276.31l-6.82-.62h-.07c-3.58-.33-6.74,2.35-7.06,5.98-.32,3.63,2.32,6.84,5.9,7.17h0s6.95.63,6.95.63c3.58.32,6.74-2.36,7.06-5.99.32-3.63-2.32-6.84-5.9-7.17h-.06Z"/>
            <path class="cls-9" d="m912.54,2273.97l-6.8-.85h-.07c-3.57-.46-6.82,2.12-7.26,5.74-.44,3.62,2.09,6.92,5.66,7.37h0l6.93.87c3.57.45,6.81-2.13,7.26-5.75.44-3.62-2.09-6.92-5.66-7.37h-.06Z"/>
            <path class="cls-9" d="m889.92,2270.85l-6.77-1.09h-.07c-3.55-.58-6.89,1.88-7.45,5.49-.56,3.61,1.86,6.99,5.41,7.56h0s6.9,1.11,6.9,1.11c3.55.57,6.89-1.89,7.45-5.5.56-3.61-1.86-6.99-5.41-7.56h-.06Z"/>
            <path class="cls-9" d="m867.41,2266.95l-6.72-1.32h-.07c-3.53-.71-6.95,1.64-7.63,5.22-.69,3.59,1.62,7.06,5.15,7.75h0s6.86,1.35,6.86,1.35c3.53.69,6.95-1.65,7.63-5.24.68-3.59-1.62-7.06-5.16-7.75h-.06Z"/>
            <path class="cls-9" d="m845.06,2262.26l-6.67-1.56-.07-.02c-3.51-.82-7.01,1.4-7.81,4.96-.81,3.56,1.38,7.11,4.89,7.93h0s6.81,1.59,6.81,1.59c3.51.82,7-1.4,7.81-4.97.81-3.56-1.38-7.11-4.89-7.93l-.07-.02Z"/>
            <path class="cls-9" d="m822.88,2256.78l-6.61-1.8-.07-.02c-3.48-.95-7.05,1.15-7.98,4.68-.93,3.53,1.13,7.16,4.61,8.11h0s6.75,1.83,6.75,1.83c3.48.95,7.05-1.15,7.98-4.68.93-3.53-1.13-7.16-4.61-8.11l-.07-.02Z"/>
            <path class="cls-9" d="m800.91,2250.5l-6.54-2.04-.07-.02c-3.44-1.07-7.09.89-8.15,4.39-1.06,3.5.88,7.2,4.32,8.28h0s6.68,2.08,6.68,2.08c3.44,1.07,7.09-.89,8.15-4.39,1.06-3.5-.88-7.2-4.32-8.27l-.07-.02Z"/>
            <path class="cls-9" d="m779.19,2243.42l-6.46-2.28-.07-.02c-3.4-1.2-7.12.63-8.31,4.08-1.18,3.46.62,7.23,4.02,8.44h0s6.6,2.33,6.6,2.33c3.4,1.2,7.12-.63,8.3-4.08,1.18-3.46-.62-7.23-4.02-8.43l-.07-.02Z"/>
            <path class="cls-9" d="m757.74,2235.53l-6.37-2.53-.07-.03c-3.36-1.33-7.14.35-8.46,3.76-1.31,3.41.35,7.26,3.71,8.59h0s6.51,2.58,6.51,2.58c3.36,1.33,7.14-.35,8.45-3.77,1.31-3.41-.35-7.25-3.71-8.58l-.07-.03Z"/>
            <path class="cls-9" d="m736.61,2226.82l-6.27-2.78-.07-.03c-3.31-1.46-7.16.07-8.6,3.43-1.44,3.36.07,7.27,3.38,8.73h0s6.41,2.84,6.41,2.84c3.31,1.46,7.15-.07,8.59-3.43,1.44-3.36-.07-7.27-3.38-8.73l-.07-.03Z"/>
            <path class="cls-9" d="m715.84,2217.27l-6.15-3.03-.07-.03c-3.25-1.6-7.16-.22-8.73,3.08-1.57,3.3-.21,7.27,3.03,8.86h0s6.3,3.09,6.3,3.09c3.25,1.6,7.15.22,8.73-3.08s.21-7.27-3.04-8.86l-.07-.03Z"/>
            <path class="cls-9" d="m695.48,2206.89l-6.03-3.28-.07-.04c-3.18-1.73-7.14-.51-8.85,2.72-1.7,3.23-.51,7.26,2.68,8.99h0s6.17,3.35,6.17,3.35c3.18,1.73,7.14.51,8.85-2.72,1.7-3.23.5-7.25-2.68-8.98l-.07-.04Z"/>
            <path class="cls-9" d="m675.56,2195.67l-5.89-3.54-.07-.04c-3.11-1.87-7.12-.82-8.96,2.34-1.84,3.16-.81,7.23,2.3,9.1h0s6.04,3.62,6.04,3.62c3.11,1.87,7.12.82,8.96-2.34,1.84-3.16.81-7.23-2.3-9.1l-.07-.04Z"/>
            <path class="cls-9" d="m656.11,2183.59l-5.72-3.79-.07-.05c-3.03-2-7.08-1.13-9.05,1.94-1.97,3.07-1.12,7.19,1.91,9.19h0s5.87,3.88,5.87,3.88c3.03,2,7.08,1.13,9.05-1.94,1.97-3.07,1.12-7.19-1.91-9.19l-.07-.05Z"/>
            <path class="cls-9" d="m637.24,2170.68l-5.54-4.03-.07-.05c-2.94-2.14-7.03-1.46-9.13,1.53-2.11,2.98-1.43,7.14,1.5,9.28h0s5.68,4.14,5.68,4.14c2.94,2.14,7.03,1.45,9.13-1.53,2.11-2.98,1.43-7.14-1.51-9.27l-.07-.05Z"/>
            <path class="cls-9" d="m618.97,2156.92l-5.36-4.3-.07-.06c-2.84-2.28-6.96-1.78-9.2,1.1-2.24,2.88-1.76,7.06,1.08,9.34h0s5.5,4.41,5.5,4.41c2.84,2.27,6.96,1.78,9.2-1.1,2.24-2.88,1.76-7.06-1.08-9.34l-.07-.06Z"/>
            <path class="cls-9" d="m601.36,2142.31l-5.15-4.55-.07-.06c-2.73-2.41-6.87-2.12-9.24.65-2.37,2.77-2.09,6.98.64,9.39h0s5.29,4.67,5.29,4.67c2.73,2.41,6.87,2.12,9.24-.66,2.37-2.77,2.08-6.97-.65-9.38l-.07-.06Z"/>
            <path class="cls-9" d="m584.46,2126.86l-4.92-4.79-.07-.07c-2.61-2.54-6.76-2.46-9.27.2-2.51,2.65-2.42,6.87.19,9.41h0s5.06,4.93,5.06,4.93c2.61,2.54,6.76,2.45,9.27-.2,2.5-2.65,2.42-6.87-.2-9.41l-.07-.07Z"/>
            <path class="cls-9" d="m568.33,2110.6l-4.68-5.03-.07-.07c-2.49-2.67-6.64-2.8-9.27-.27-2.63,2.52-2.75,6.74-.27,9.41h0s4.82,5.18,4.82,5.18c2.49,2.67,6.64,2.79,9.27.27,2.63-2.52,2.75-6.74.26-9.41l-.07-.07Z"/>
            <path class="cls-9" d="m553.03,2093.54l-4.42-5.26-.07-.08c-2.35-2.8-6.49-3.14-9.25-.75-2.76,2.39-3.09,6.59-.74,9.39h0s4.55,5.42,4.55,5.42c2.35,2.8,6.49,3.13,9.25.75,2.76-2.39,3.09-6.59.74-9.39l-.06-.08Z"/>
            <path class="cls-9" d="m538.63,2075.75l-4.1-5.47-.08-.11c-2.19-2.92-6.29-3.49-9.16-1.27-2.88,2.22-3.45,6.36-1.27,9.28l4.24,5.73c2.18,2.94,6.29,3.53,9.18,1.32,2.89-2.21,3.47-6.39,1.3-9.32l-.02-.03-.09-.12Z"/>
            <path class="cls-9" d="m525.32,2057.14l-3.8-5.74-.05-.08c-2-3.02-6.03-3.82-9-1.79-2.97,2.03-3.78,6.1-1.78,9.11l3.88,5.92c1.99,3.03,6.03,3.86,9.01,1.83,2.99-2.02,3.8-6.12,1.81-9.15l-.02-.03-.05-.08Z"/>
            <path class="cls-9" d="m512.93,2037.77l-3.55-5.92-.04-.07c-1.85-3.08-5.8-4.06-8.83-2.18-3.03,1.87-4.01,5.86-2.17,8.94l3.61,6.09c1.84,3.1,5.8,4.1,8.84,2.23,3.05-1.86,4.03-5.89,2.2-8.98l-.02-.03-.04-.07Z"/>
            <path class="cls-9" d="m501.41,2017.84l-3.28-6.08-.04-.08c-1.69-3.13-5.57-4.28-8.65-2.56-3.07,1.71-4.2,5.63-2.53,8.75l3.34,6.25c1.68,3.15,5.56,4.32,8.66,2.61,3.1-1.71,4.25-5.65,2.57-8.8l-.02-.03-.04-.08Z"/>
            <path class="cls-9" d="m490.73,1997.44l-3.02-6.21-.04-.09c-1.52-3.13-5.25-4.42-8.33-2.87-3.06,1.53-4.32,5.27-2.86,8.38l3.02,6.43c1.49,3.17,5.23,4.52,8.35,3,3.12-1.51,4.45-5.31,2.96-8.48,0-.01-.01-.03-.02-.04l-.06-.12Z"/>
            <path class="cls-9" d="m481.06,1976.56l-2.68-6.36-.04-.1c-1.32-3.13-4.89-4.58-7.97-3.24-3.06,1.33-4.49,4.91-3.23,8.02l2.68,6.59c1.29,3.17,4.86,4.68,7.99,3.38,3.12-1.31,4.61-4.94,3.32-8.11,0-.01-.01-.03-.02-.04l-.05-.13Z"/>
            <path class="cls-9" d="m472.59,1955.19l-2.28-6.5-.04-.12c-1.09-3.13-4.48-4.76-7.55-3.65-3.05,1.1-4.66,4.49-3.62,7.59l2.26,6.77c1.06,3.17,4.45,4.87,7.57,3.79,3.12-1.07,4.79-4.52,3.73-7.68,0-.02-.01-.03-.02-.05l-.05-.15Z"/>
            <path class="cls-9" d="m465.51,1933.37l-1.79-6.63-.04-.15c-.83-3.07-3.95-4.87-6.97-4.03-2.98.83-4.75,3.94-4,6.97l1.73,6.96c.78,3.13,3.9,5.02,6.98,4.23,3.08-.79,4.94-3.96,4.17-7.09,0-.03-.02-.06-.02-.09l-.05-.17Z"/>
            <path class="cls-9" d="m460.24,1911.12l-1.15-6.74-.03-.18c-.51-3-3.33-5.01-6.28-4.49-2.92.52-4.88,3.31-4.44,6.27l1.07,7.12c.46,3.05,3.27,5.15,6.27,4.69,3.01-.47,5.07-3.32,4.61-6.37,0-.03,0-.06-.01-.09l-.03-.2Z"/>
            <path class="cls-9" d="m457.27,1888.55l-.36-6.79v-.23c-.16-2.88-2.58-5.09-5.42-4.94-2.78.15-4.93,2.53-4.86,5.34l.18,7.24c.07,2.94,2.48,5.27,5.37,5.19,2.9-.07,5.18-2.51,5.11-5.45,0-.04,0-.09,0-.13v-.24Z"/>
            <path class="cls-9" d="m457.25,1865.94l.7-6.72.03-.27c.28-2.68-1.63-5.09-4.28-5.37-2.59-.28-4.92,1.6-5.27,4.2l-.96,7.22c-.36,2.73,1.52,5.24,4.21,5.61,2.69.37,5.16-1.55,5.53-4.28,0-.04.01-.08.01-.12l.03-.28Z"/>
            <path class="cls-9" d="m461.03,1843.83l1.96-6.42.09-.29c.72-2.37-.58-4.88-2.92-5.62-2.27-.72-4.69.53-5.48,2.79l-2.4,6.9c-.84,2.41.4,5.06,2.78,5.91,2.38.85,4.98-.41,5.82-2.82.02-.05.04-.1.05-.16l.09-.3Z"/>
            <path class="cls-9" d="m469.19,1823.07l3.37-5.79.15-.26c1.11-1.91.49-4.38-1.4-5.51-1.84-1.1-4.2-.52-5.35,1.29l-3.9,6.15c-1.23,1.94-.68,4.52,1.23,5.77,1.91,1.25,4.45.69,5.68-1.25.03-.04.05-.08.08-.13l.15-.27Z"/>
            <path class="cls-9" d="m481.96,1804.77l4.64-4.88.17-.17c1.35-1.42,1.31-3.67-.09-5.04-1.36-1.33-3.51-1.32-4.86-.01l-5.17,5.02c-1.46,1.42-1.51,3.76-.11,5.24,1.39,1.48,3.71,1.53,5.16.12.03-.03.06-.06.09-.09l.18-.19Z"/>
            <path class="cls-9" d="m498.58,1789.66l5.55-3.9.14-.1c1.34-.94,1.68-2.82.75-4.18-.9-1.32-2.66-1.68-3.99-.85l-6.03,3.78c-1.48.93-1.94,2.9-1.03,4.4.91,1.5,2.85,1.97,4.33,1.04.04-.03.09-.06.13-.09l.15-.1Z"/>
          </g>
          <g>
            <g>
              <path class="cls-12" d="m63.42,847.73c-34.05.01-59.28,31.62-51.75,64.82l330.98,1458.39c5.59,24.63,27.76,41.91,53.01,41.31l2353.78-55.39c29.31-.69,52.51-25.01,51.81-54.32l-33.22-1403.66c-.68-28.82-24.25-51.83-53.07-51.82l-2651.54.66Z"/>
              <path class="cls-5" d="m286.14,455.72c-29.87-.71-53.65,24.84-50.81,54.59l136.67,1431.55c2.49,26.04,24.66,45.73,50.81,45.11l2106.1-49.57c26.21-.62,47.46-21.42,48.64-47.61l59.59-1327.45c1.25-27.92-20.69-51.42-48.63-52.08l-2302.36-54.53Z"/>
              <g>
                <path class="cls-17" d="m2317.12,1743.28c41.24,5.22,78.95-23.86,84.39-65.07l171.17-1297.27c5.46-41.37-23.65-79.33-65.02-84.79L564.66,39.78c-41.29-5.45-79.2,23.54-84.76,64.82l-176.05,1307.18c-5.6,41.59,23.76,79.77,65.39,85.04l1947.88,246.47Z"/>
                <path class="cls-5" d="m476.43,1437.31c-42.65-5.02-72.86-44.09-66.98-86.63L569.65,191.66c5.79-41.89,44.42-71.19,86.32-65.46l1742.85,238.2c41.27,5.64,70.49,43.2,65.79,84.59l-128.15,1129.76c-4.79,42.19-42.96,72.46-85.13,67.49l-1774.89-208.94Z"/>
                <path class="cls-1" d="m478.27,1283.99c-1.99,15.08,8.62,28.92,23.7,30.91l9.6,1.27c15.08,1.99,28.92-8.62,30.91-23.7L684.1,219.19c1.99-15.08-8.62-28.92-23.7-30.91l-9.6-1.27c-15.08-1.99-28.92,8.62-30.91,23.7l-141.62,1073.28Z"/>
                <path class="cls-1" d="m638.56,1211.09h0c14.39,1.11,27.2-9.08,29.35-23.36l140.96-936.38c2.29-15.23-8.36-29.39-23.63-31.4l-2.23-.29c-14.91-1.97-28.64,8.39-30.85,23.27l-138.73,936.67c-2.34,15.8,9.2,30.26,25.12,31.49Z"/>
                <path class="cls-10" d="m2282.33,1529.53c.03-.26.07-.52.1-.78l126.81-1058.86c2.08-17.42-2.76-34.58-13.65-48.33-10.89-13.75-26.48-22.4-43.91-24.37L913.93,235.15c-17.35-1.96-34.42,2.96-48.07,13.85-13.65,10.89-22.26,26.62-24.18,43.79l-118.71,1058.06c-4.01,35.74,21.8,68.13,57.53,72.21h0s1429.66,162.84,1429.66,162.84c35.33,4.02,67.53-21.21,72.17-56.37Zm-1499.36-128.07c-23.85-2.72-41.07-24.33-38.39-48.18l118.71-1058.06c1.25-11.48,7.03-21.96,16.13-29.22,9.11-7.26,20.5-10.55,32.08-9.24l79.75,8.99-150.47,1140.37c-.09.65-.1,1.29-.07,1.92l-57.73-6.58Zm1429.65,162.84l-1350.61-153.83c.14-.49.25-.99.32-1.5l150.52-1140.78,1336.4,150.61c11.63,1.31,22.03,7.08,29.3,16.25,7.26,9.18,10.5,20.63,9.11,32.26l-126.81,1058.86c-.02.17-.04.35-.07.52-3.1,23.46-24.58,40.3-48.16,37.61Z"/>
              </g>
            </g>
            <g>
              <g>
                <g class="cls-21">
                  <path class="cls-14" d="m1542.77,568.75c-4.88-1.29-8.1-6.09-7.31-11.19,1.73-11.15,3.98-22.39,6.67-33.41,1.31-5.36,6.71-8.65,12.07-7.34.06.02.13.03.19.05,5.25,1.39,8.44,6.73,7.15,12.03-2.56,10.47-4.69,21.15-6.33,31.74-.85,5.45-5.95,9.19-11.41,8.34-.35-.05-.69-.13-1.03-.22Zm22.87-83.97c-.38-.1-.75-.22-1.13-.37-5.13-2.03-7.65-7.83-5.62-12.96,4.17-10.54,8.82-21,13.84-31.1,2.46-4.94,8.43-6.95,13.39-4.5,4.94,2.46,6.95,8.45,4.5,13.39-4.77,9.6-9.19,19.54-13.15,29.56-1.88,4.76-7.01,7.26-11.83,5.99Zm40.79-76.84c-1.08-.28-2.12-.75-3.09-1.42-4.55-3.12-5.71-9.34-2.59-13.89,6.39-9.33,13.27-18.5,20.44-27.25,3.5-4.26,9.79-4.88,14.06-1.39,4.27,3.5,4.89,9.79,1.39,14.06-6.81,8.31-13.34,17.01-19.41,25.87-2.45,3.58-6.83,5.06-10.8,4.01Zm56.96-65.81c-1.78-.47-3.44-1.44-4.78-2.89-3.74-4.06-3.48-10.38.58-14.12,8.32-7.67,17.08-15.07,26.02-21.99,4.36-3.37,10.63-2.58,14.02,1.78,3.38,4.36,2.58,10.64-1.78,14.02-8.49,6.58-16.81,13.6-24.72,20.89-2.61,2.4-6.14,3.15-9.33,2.31Zm70.21-51.45c-2.49-.66-4.73-2.28-6.11-4.69-2.75-4.79-1.09-10.89,3.69-13.63,9.79-5.62,19.96-10.89,30.23-15.68,5-2.33,10.94-.17,13.28,4.83,2.33,5,.17,10.94-4.83,13.28-9.76,4.55-19.43,9.56-28.73,14.9-2.37,1.36-5.07,1.64-7.52.99Zm79.83-34.63c-3.23-.85-5.95-3.3-7.01-6.73-1.62-5.28,1.35-10.86,6.62-12.48,10.81-3.32,21.9-6.21,32.95-8.6,5.4-1.16,10.71,2.26,11.87,7.66,1.17,5.39-2.26,10.71-7.65,11.87-10.51,2.27-21.04,5.02-31.31,8.17-1.85.57-3.73.57-5.48.11Zm359.97,70.6c-1.34-.35-2.62-.99-3.76-1.92-8.31-6.79-17.03-13.31-25.92-19.38-4.56-3.11-5.73-9.33-2.62-13.88,3.11-4.56,9.32-5.73,13.88-2.62,9.36,6.39,18.54,13.25,27.3,20.4,4.27,3.49,4.91,9.79,1.41,14.06-2.56,3.13-6.63,4.31-10.3,3.34Zm-274.5-86.68c-4.01-1.06-7.09-4.56-7.41-8.93-.41-5.5,3.73-10.29,9.23-10.7,11.28-.83,22.73-1.18,34.04-1.04,5.51.09,9.94,4.59,9.87,10.11-.07,5.52-4.6,9.93-10.11,9.87-10.74-.14-21.61.2-32.32.99-1.14.08-2.25-.02-3.29-.3Zm201.33,39.56c-.64-.17-1.27-.4-1.88-.7-9.63-4.76-19.59-9.17-29.6-13.1-5.13-2.02-7.66-7.82-5.64-12.95,2.02-5.13,7.82-7.69,12.95-5.64,10.54,4.14,21.02,8.78,31.15,13.79,4.95,2.45,6.97,8.44,4.53,13.38-2.14,4.33-7,6.42-11.5,5.23Zm-114.42-36.14c-4.87-1.29-8.09-6.08-7.31-11.17.84-5.45,5.94-9.19,11.39-8.36,11.17,1.71,22.41,3.93,33.41,6.6.07.01.14.03.21.05,5.24,1.39,8.43,6.71,7.15,12.01-1.3,5.36-6.7,8.66-12.06,7.36-10.45-2.53-21.13-4.64-31.74-6.26-.36-.06-.71-.13-1.05-.22Z"/>
                  <path class="cls-19" d="m2223.5,375.77c-1.9-.5-3.68-1.57-5.05-3.18-3.34-3.93-6.81-7.84-10.32-11.65-3.74-4.05-3.49-10.38.57-14.11,4.05-3.74,10.38-3.49,14.12.57,3.7,4.01,7.35,8.13,10.86,12.26,3.57,4.2,3.06,10.51-1.14,14.08-2.59,2.2-5.98,2.85-9.04,2.05Z"/>
                </g>
                <g class="cls-21">
                  <path class="cls-7" d="m2314.49,666.42c-4.66-1.23-7.87-5.7-7.38-10.65.51-5.12.93-10.35,1.23-15.52.32-5.51,5.05-9.71,10.56-9.39,5.53.32,9.71,5.05,9.39,10.56-.32,5.44-.76,10.94-1.29,16.34-.55,5.49-5.45,9.49-10.93,8.95-.54-.05-1.06-.15-1.57-.29Z"/>
                  <path class="cls-4" d="m1828.22,1004.22c-4.44-1.18-8.88-2.43-13.32-3.77-5.28-1.59-8.28-7.16-6.69-12.44,1.59-5.28,7.19-8.29,12.44-6.69,10.24,3.08,20.58,5.74,30.85,7.92,5.4,1.16,8.84,6.45,7.69,11.85-1.15,5.4-6.45,8.84-11.85,7.7-6.36-1.35-12.79-2.89-19.13-4.56Zm-62.67-22.38c-.54-.14-1.08-.33-1.6-.57-10.14-4.62-20.2-9.73-29.89-15.18-4.81-2.7-6.52-8.79-3.82-13.6,2.7-4.81,8.81-6.53,13.6-3.82,9.21,5.17,18.76,10.02,28.4,14.42,5.02,2.29,7.23,8.21,4.94,13.23-2.05,4.5-7.01,6.74-11.63,5.52Zm133.86,34.28c-4.55-1.2-7.75-5.51-7.4-10.38.4-5.5,5.19-9.64,10.69-9.24,10.53.77,21.23,1.09,31.81.96,5.52-.06,10.04,4.35,10.11,9.87.07,5.52-4.35,10.05-9.87,10.11-11.15.14-22.42-.21-33.5-1.01-.63-.05-1.25-.15-1.84-.31Zm-207.41-78.19c-1.23-.32-2.41-.89-3.48-1.7-8.87-6.73-17.56-13.93-25.82-21.38-4.1-3.69-4.42-10.01-.73-14.11,3.7-4.1,10.01-4.43,14.11-.73,7.85,7.08,16.1,13.91,24.52,20.3,4.4,3.33,5.25,9.6,1.92,14-2.52,3.32-6.72,4.62-10.52,3.62Zm292.93,74.9c-3.73-.99-6.72-4.11-7.33-8.17-.82-5.46,2.94-10.55,8.39-11.37,10.43-1.57,20.94-3.61,31.24-6.06,5.37-1.28,10.75,2.04,12.03,7.41,1.28,5.37-2.04,10.75-7.41,12.03-10.84,2.58-21.91,4.73-32.89,6.38-1.39.21-2.76.12-4.04-.22Zm82.73-21.98c-2.99-.79-5.56-2.95-6.77-6.05-1.99-5.14.56-10.93,5.7-12.93,9.87-3.82,19.68-8.11,29.18-12.73,4.96-2.42,10.94-.36,13.35,4.61,2.42,4.96.35,10.94-4.61,13.36-10,4.87-20.33,9.38-30.71,13.4-2.04.79-4.19.87-6.16.35Zm75.97-39.49c-2.27-.6-4.34-2-5.75-4.11-3.07-4.58-1.83-10.79,2.75-13.86,8.81-5.89,17.46-12.2,25.72-18.78,4.31-3.44,10.6-2.73,14.04,1.59,3.44,4.32,2.73,10.6-1.59,14.04-8.69,6.92-17.8,13.58-27.06,19.77-2.48,1.66-5.43,2.06-8.11,1.35Zm65.55-55.12c-1.57-.42-3.07-1.22-4.33-2.42-3.99-3.81-4.15-10.13-.34-14.12,7.3-7.66,14.36-15.72,20.97-23.96,3.45-4.3,9.75-4.99,14.04-1.54,4.3,3.45,4.99,9.74,1.53,14.04-6.97,8.68-14.4,17.17-22.08,25.23-2.61,2.73-6.39,3.67-9.8,2.77Zm51.87-68.19c-.88-.23-1.75-.6-2.58-1.09-4.73-2.83-6.28-8.97-3.45-13.7,5.42-9.06,10.52-18.47,15.17-27.98,2.42-4.96,8.42-7,13.36-4.59,4.96,2.42,7.01,8.41,4.59,13.36-4.89,10.01-10.26,19.92-15.97,29.46-2.34,3.91-6.93,5.65-11.13,4.54Zm35.6-77.87c-.2-.05-.4-.11-.59-.18-5.24-1.73-8.08-7.38-6.35-12.62,2.45-7.39,4.69-14.95,6.68-22.46.72-2.72,1.41-5.44,2.06-8.16,1.3-5.36,6.69-8.66,12.06-7.37,5.46,1.2,8.66,6.69,7.37,12.05-.69,2.86-1.41,5.73-2.17,8.59-2.09,7.9-4.46,15.85-7.03,23.63-1.67,5.04-6.96,7.86-12.03,6.52Z"/>
                  <path class="cls-13" d="m1629.78,878.73c-1.92-.51-3.71-1.59-5.08-3.22-3.48-4.14-6.94-8.43-10.29-12.75-3.38-4.36-2.58-10.64,1.79-14.01,4.37-3.37,10.64-2.58,14.01,1.79,3.18,4.11,6.46,8.18,9.77,12.11,3.55,4.22,3.01,10.52-1.21,14.07-2.59,2.18-5.96,2.82-8.99,2.01Z"/>
                </g>
                <g>
                  <path class="cls-16" d="m1672.43,770.16c.82,1.81,2.71,2.91,4.69,2.72l56.58-5.32c16.19,21.03,35.84,39.63,58.54,54.82l-1.56,56.77c-.06,1.99,1.16,3.8,3.02,4.5l63.8,23.98c1.87.7,3.97.14,5.24-1.39l36.22-43.74c27.08,3.52,54.12,2.48,80.15-2.69l39.06,41.27c1.37,1.45,3.51,1.86,5.32,1.04l62.07-28.16c1.81-.82,2.91-2.71,2.72-4.69l-5.32-56.57c21.03-16.19,39.63-35.84,54.82-58.54l56.77,1.56c1.99.05,3.8-1.16,4.5-3.02l23.98-63.8c.7-1.86.14-3.97-1.39-5.24l-43.74-36.22c3.52-27.08,2.48-54.12-2.69-80.15l41.27-39.06c1.45-1.37,1.86-3.51,1.04-5.32l-28.16-62.07c-.82-1.82-2.71-2.91-4.69-2.72l-56.58,5.32c-16.18-21.03-35.84-39.63-58.54-54.82l1.56-56.77c.05-1.99-1.16-3.8-3.02-4.5l-63.8-23.98c-1.86-.7-3.97-.14-5.24,1.39l-36.22,43.74c-27.08-3.53-54.12-2.48-80.15,2.69l-39.06-41.27c-1.37-1.45-3.51-1.87-5.32-1.04l-62.07,28.16c-1.81.82-2.91,2.71-2.72,4.69l5.32,56.58c-21.03,16.19-39.63,35.84-54.82,58.54l-56.77-1.56c-1.99-.06-3.8,1.16-4.5,3.03l-23.98,63.8c-.7,1.86-.14,3.97,1.39,5.24l43.74,36.22c-3.52,27.08-2.47,54.12,2.69,80.15l-41.27,39.06c-1.45,1.37-1.87,3.5-1.04,5.32l28.16,62.07Z"/>
                  <path class="cls-17" d="m1913.34,681.71c-32.29-8.54-54.37-39.75-50.52-73.9,4.23-37.54,38.22-64.64,75.76-60.41,18.19,2.05,34.49,11.06,45.89,25.37,11.41,14.31,16.57,32.2,14.52,50.39-4.23,37.54-38.22,64.64-75.76,60.41-3.38-.38-6.69-1.01-9.89-1.85Zm31.11-117c-2.49-.66-5.05-1.14-7.66-1.44-28.78-3.25-54.84,17.54-58.08,46.32-3.24,28.78,17.53,54.85,46.32,58.09,28.78,3.25,54.84-17.54,58.08-46.32,1.57-13.95-2.38-27.67-11.13-38.64-7.11-8.92-16.7-15.15-27.53-18.01Z"/>
                  <path class="cls-17" d="m1889.39,777.74c-5.55-1.47-11.05-3.22-16.49-5.27h0c-1.71-.64-3.42-1.32-5.11-2.01-8.34-3.45-16.4-7.55-24.04-12.25-.1-.06-.21-.13-.31-.19-.29-.18-.59-.37-.88-.55-.57-.36-1.14-.72-1.71-1.09-1.49-.96-2.13-2.75-1.7-4.38.1-.4.27-.78.51-1.15,1.19-1.86,3.67-2.38,5.52-1.2,9.55,6.15,19.82,11.3,30.54,15.33,53.23,20.02,110.53,9.79,152.96-22.05,23.6-17.71,42.59-42.1,53.72-71.71,1.95-5.19,3.63-10.44,5.02-15.73,9.41-35.6,6.32-73.04-9.1-107.02-17.71-39.04-49.56-68.84-89.68-83.92-82.87-31.14-175.55,10.93-206.68,93.76-1.92,5.11-3.57,10.29-4.96,15.53-6,22.71-6.97,46.48-2.75,69.6.11.6.08,1.19-.07,1.74-.38,1.45-1.57,2.62-3.15,2.91-2.17.39-4.25-1.04-4.65-3.22-4.43-24.28-3.42-49.24,2.88-73.07,1.45-5.5,3.19-10.94,5.2-16.3,32.68-86.96,130.04-131.1,216.97-98.43,42.12,15.83,75.56,47.12,94.15,88.1,16.19,35.68,19.43,74.98,9.55,112.35-1.47,5.55-3.23,11.07-5.27,16.51-15.83,42.12-47.12,75.56-88.1,94.15-35.68,16.19-75,19.43-112.38,9.54Z"/>
                </g>
              </g>
              <g>
                <g class="cls-21">
                  <path class="cls-15" d="m1145.89,736.09c-2.58-.68-4.51-2.99-4.59-5.8-.14-5.24-.13-10.55.05-15.79.11-3.4,2.96-6.07,6.37-5.96,3.41.1,6.07,2.97,5.96,6.37-.16,4.99-.18,10.06-.05,15.05.09,3.4-2.59,6.24-6,6.33-.6.01-1.19-.06-1.75-.21Z"/>
                  <path class="cls-18" d="m1148.98,688.72c-3.02-.8-5.01-3.77-4.51-6.93,1.41-8.91,3.29-17.85,5.6-26.56.49-1.83.99-3.67,1.52-5.51.94-3.28,4.5-5,7.64-4.23,3.28.94,5.17,4.36,4.23,7.63-.5,1.75-.99,3.51-1.45,5.26-2.2,8.31-3.99,16.84-5.34,25.33-.53,3.37-3.69,5.66-7.06,5.13-.21-.04-.42-.08-.62-.13Zm17.69-61.57c-.28-.07-.57-.17-.84-.28-3.14-1.33-4.6-4.96-3.27-8.09,4.27-10.06,9.2-19.95,14.66-29.39,1.71-2.95,5.49-3.94,8.43-2.25,2.95,1.71,3.96,5.48,2.25,8.43-5.21,9-9.91,18.43-13.99,28.03-1.21,2.86-4.33,4.33-7.25,3.56Zm32.09-55.44c-.76-.2-1.49-.55-2.15-1.05-2.71-2.06-3.24-5.93-1.18-8.65,6.6-8.69,13.81-17.08,21.45-24.9,2.38-2.44,6.28-2.49,8.73-.1,2.44,2.38,2.49,6.29.11,8.72-7.28,7.46-14.16,15.45-20.45,23.74-1.56,2.05-4.15,2.85-6.5,2.23Zm44.74-45.86c-1.24-.33-2.38-1.04-3.24-2.11-2.13-2.66-1.69-6.55.97-8.67,8.55-6.83,17.59-13.18,26.88-18.89,2.91-1.78,6.7-.86,8.48,2.03,1.78,2.9.88,6.7-2.03,8.49-8.86,5.44-17.49,11.5-25.63,18.01-1.59,1.27-3.61,1.63-5.43,1.14Zm54.58-33.54c-1.72-.46-3.24-1.65-4.04-3.41-1.41-3.1-.05-6.76,3.05-8.17,9.94-4.53,20.25-8.5,30.65-11.78,3.25-1.03,6.72.77,7.74,4.02s-.78,6.72-4.02,7.74c-9.92,3.13-19.76,6.92-29.24,11.25-1.35.61-2.81.7-4.14.35Zm61.06-19.27c-2.23-.59-4.04-2.42-4.49-4.85-.62-3.35,1.6-6.56,4.95-7.19,10.74-1.98,21.71-3.32,32.59-3.95,3.41-.19,6.32,2.4,6.52,5.8.2,3.4-2.4,6.32-5.8,6.52-10.38.61-20.83,1.88-31.07,3.77-.93.17-1.84.12-2.7-.1Zm63.9-3.76c-2.8-.74-4.77-3.37-4.57-6.36.22-3.4,3.16-5.98,6.56-5.76,10.86.71,21.82,2.11,32.58,4.17,3.34.7,5.54,3.88,4.9,7.22-.64,3.35-3.87,5.54-7.22,4.9-10.26-1.97-20.71-3.3-31.07-3.98-.41-.03-.8-.09-1.18-.19Zm92.81,23.74c-.34-.09-.69-.21-1.02-.37-8.16-3.78-16.67-7.19-25.3-10.12-1.3-.45-2.59-.88-3.88-1.29-3.25-1.05-5.03-4.52-3.99-7.76,1.04-3.25,4.56-5.13,7.76-3.99,1.37.44,2.74.89,4.11,1.37,9.01,3.06,17.93,6.63,26.49,10.6,3.09,1.44,4.44,5.1,3,8.19-1.28,2.75-4.33,4.12-7.17,3.37Z"/>
                </g>
                <g class="cls-21">
                  <path class="cls-6" d="m1343.13,981.67c-3.26-.86-5.22-4.19-4.4-7.47.83-3.3,4.18-5.31,7.48-4.48,9.95,2.49,20.14,4.4,30.28,5.67,3.36.45,5.78,3.5,5.36,6.89-.42,3.38-3.51,5.78-6.89,5.36-10.63-1.34-21.32-3.33-31.75-5.95-.03,0-.06-.01-.08-.02Zm-30.1-9.5c-.22-.06-.43-.13-.64-.21-10.03-3.84-19.93-8.33-29.43-13.34-3.01-1.59-4.17-5.32-2.58-8.33,1.59-3.02,5.34-4.15,8.34-2.58,9.06,4.78,18.51,9.06,28.08,12.73,3.18,1.22,4.77,4.78,3.56,7.96-1.14,2.98-4.33,4.56-7.33,3.76Zm92.61,17.31c-2.64-.7-4.59-3.11-4.59-5.98,0-3.4,2.77-6.16,6.18-6.16,10.27.01,20.61-.6,30.77-1.82,3.39-.39,6.46,2.01,6.86,5.39.41,3.38-2.01,6.46-5.39,6.86-10.64,1.28-21.49,1.92-32.25,1.9-.55,0-1.07-.07-1.57-.2Zm-148.34-46.77c-.68-.18-1.34-.48-1.95-.9-8.82-6.14-17.35-12.89-25.35-20.06-2.54-2.27-2.75-6.17-.48-8.71,2.27-2.53,6.17-2.74,8.71-.48,7.63,6.83,15.76,13.27,24.17,19.13,2.79,1.95,3.48,5.79,1.54,8.59-1.52,2.18-4.21,3.08-6.64,2.44Zm210.88,39.23c-2.11-.56-3.86-2.22-4.42-4.49-.82-3.31,1.21-6.65,4.51-7.47,9.94-2.44,19.84-5.52,29.42-9.16,3.19-1.21,6.75.4,7.96,3.58,1.21,3.19-.4,6.75-3.58,7.96-10.04,3.81-20.42,7.04-30.84,9.61-1.04.25-2.08.23-3.05-.03Zm58.91-22.32c-1.62-.43-3.05-1.51-3.89-3.1-1.58-3.02-.42-6.75,2.6-8.33,9.09-4.77,17.97-10.13,26.39-15.93,2.81-1.94,6.65-1.23,8.58,1.58,1.93,2.81,1.23,6.64-1.58,8.58-8.83,6.09-18.13,11.71-27.66,16.71-1.42.75-3,.88-4.44.5Zm51.87-35.79c-1.14-.3-2.2-.92-3.03-1.87-2.26-2.55-2.02-6.45.53-8.71,7.69-6.8,15.02-14.13,21.79-21.8,2.26-2.54,6.16-2.79,8.71-.53,2.55,2.26,2.79,6.15.53,8.71-7.1,8.03-14.79,15.73-22.85,22.86-1.61,1.42-3.75,1.85-5.67,1.34Z"/>
                  <path class="cls-2" d="m1210.16,900.44c-1.15-.3-2.22-.94-3.07-1.91-3.47-3.98-6.84-8.08-10.02-12.18-2.08-2.7-1.59-6.57,1.11-8.66,2.7-2.07,6.57-1.58,8.66,1.11,3.03,3.92,6.24,7.83,9.56,11.63,2.24,2.57,1.97,6.47-.59,8.7-1.6,1.4-3.73,1.82-5.64,1.31Z"/>
                </g>
                <g>
                  <path class="cls-8" d="m1235.5,824.69c.55,1.21,1.81,1.94,3.14,1.82l37.86-3.56c10.83,14.07,23.98,26.52,39.17,36.68l-1.04,37.99c-.04,1.33.78,2.54,2.02,3.01l42.69,16.05c1.25.47,2.66.09,3.51-.93l24.23-29.27c18.12,2.36,36.22,1.66,53.64-1.8l26.14,27.62c.92.97,2.35,1.25,3.56.7l41.54-18.84c1.21-.55,1.94-1.81,1.82-3.14l-3.56-37.86c14.07-10.83,26.52-23.98,36.68-39.17l37.99,1.04c1.33.04,2.54-.78,3.01-2.02l16.05-42.7c.47-1.25.09-2.66-.93-3.51l-29.27-24.24c2.36-18.12,1.66-36.22-1.8-53.63l27.62-26.14c.97-.92,1.25-2.35.7-3.56l-18.84-41.54c-.55-1.21-1.81-1.94-3.14-1.82l-37.86,3.56c-10.83-14.07-23.98-26.52-39.17-36.68l1.04-37.99c.04-1.33-.78-2.54-2.02-3.01l-42.7-16.05c-1.25-.47-2.65-.09-3.51.93l-24.23,29.27c-18.12-2.36-36.22-1.66-53.64,1.8l-26.14-27.62c-.92-.97-2.35-1.25-3.56-.7l-41.54,18.84c-1.21.55-1.94,1.81-1.82,3.14l3.56,37.86c-14.07,10.83-26.52,23.98-36.68,39.17l-37.99-1.04c-1.33-.04-2.54.78-3.01,2.02l-16.05,42.69c-.47,1.25-.09,2.66.93,3.51l29.27,24.24c-2.36,18.12-1.66,36.22,1.8,53.63l-27.62,26.14c-.97.92-1.25,2.35-.7,3.56l18.84,41.54Z"/>
                  <path class="cls-17" d="m1396.42,766.29c-9.62-2.55-18.14-8.08-24.46-16-7.77-9.75-11.28-21.94-9.88-34.33,2.88-25.56,26.02-44.02,51.6-41.15,25.6,2.93,44.03,26.04,41.15,51.61-1.39,12.39-7.53,23.49-17.28,31.26-9.75,7.77-21.94,11.29-34.33,9.89-2.31-.26-4.59-.69-6.8-1.27Zm20.83-78.29c-1.61-.42-3.26-.74-4.96-.93-18.81-2.11-35.84,11.46-37.96,30.27-1.03,9.11,1.55,18.08,7.27,25.25,5.72,7.17,13.89,11.68,23,12.71h0c9.11,1.03,18.08-1.56,25.25-7.27,7.17-5.72,11.68-13.89,12.71-23,1.93-17.11-9.14-32.75-25.32-37.03Z"/>
                  <path class="cls-17" d="m1379.66,833.11c-3.77-1-7.53-2.2-11.26-3.59-7.41-2.78-14.54-6.32-21.21-10.53-.3-.19-.6-.38-.9-.57-2.31-1.48-3.29-4.24-2.63-6.76.16-.61.42-1.21.78-1.77,1.84-2.87,5.66-3.68,8.53-1.85,6.19,3.99,12.85,7.32,19.77,9.92h0c.38.14.76.28,1.14.42,16.44,6,33.75,7.67,50.62,5.15,9.15-1.37,18.18-3.98,26.86-7.82.07-.03.14-.06.21-.09.22-.1.43-.19.64-.29,25.27-11.47,44.57-32.08,54.33-58.06,1.27-3.36,2.35-6.76,3.25-10.18,6.09-23.04,4.09-47.28-5.89-69.29-11.47-25.27-32.09-44.56-58.06-54.32-25.96-9.75-54.2-8.82-79.47,2.63-25.27,11.47-44.57,32.08-54.33,58.06-1.24,3.3-2.31,6.66-3.21,10.05-3.89,14.7-4.51,30.09-1.78,45.06.17.92.12,1.83-.1,2.68-.59,2.24-2.43,4.05-4.86,4.49-3.35.6-6.57-1.61-7.18-4.97-3.06-16.75-2.36-33.97,1.98-50.41,1-3.8,2.2-7.55,3.59-11.25,10.92-29.06,32.51-52.13,60.79-64.96,28.27-12.82,59.84-13.9,88.9-2.95,29.06,10.92,52.13,32.5,64.95,60.78,11.17,24.61,13.41,51.73,6.59,77.51-1.01,3.83-2.22,7.63-3.64,11.39-21.15,56.26-81.53,86.55-138.43,71.5Z"/>
                </g>
              </g>
            </g>
            <g>
              <path class="cls-11" d="m307.17,815.54h2443.8c29.93,0,54.23,24.3,54.23,54.23v1534.67c0,17.17-13.94,31.11-31.11,31.11H286.86c-16.53,0-29.95-13.42-29.95-29.95V865.8c0-27.74,22.52-50.26,50.26-50.26Z"/>
              <g class="cls-22">
                <path class="cls-9" d="m1398.95,883.89c-3.44,0-6.26-2.75-6.33-6.21-.07-3.5,2.71-6.38,6.21-6.45l240.51-4.59c3.56-.16,6.38,2.71,6.45,6.21.07,3.5-2.71,6.38-6.21,6.45l-240.51,4.59s-.08,0-.13,0Z"/>
              </g>
              <g class="cls-22">
                <path class="cls-9" d="m857.59,894.22c-3.44,0-6.26-2.75-6.33-6.21-.07-3.5,2.71-6.38,6.21-6.45l470.93-8.98c3.58-.19,6.38,2.71,6.45,6.21.07,3.5-2.71,6.38-6.21,6.45l-470.93,8.98s-.08,0-.13,0Z"/>
              </g>
              <g class="cls-22">
                <path class="cls-9" d="m336.45,1195.49h0c-3.5,0-6.33-2.85-6.32-6.34l.38-215.69c.08-45.14,36.86-82.55,81.98-83.41l273.31-5.21c3.48-.13,6.38,2.71,6.45,6.21.07,3.5-2.71,6.38-6.21,6.45l-273.31,5.21c-38.29.73-69.49,32.48-69.56,70.78l-.38,215.69c0,3.49-2.84,6.32-6.33,6.32Z"/>
              </g>
            </g>
          </g>
          <g>
            <path class="cls-9" d="m983.64,1299.97c287.13-273.58,569.34-331.28,926.46-243.98,23.11,5.65,40.9,24.11,45.54,47.44l2.69,13.52c8.23,41.32-26.88,78.37-68.58,72.37-302.04-43.44-523.52-53.35-824.68,201.6-33.15,28.06-84.2,13.35-97.5-28h0c-7.18-22.33-.92-46.79,16.06-62.96Z"/>
            <path class="cls-9" d="m1008.62,1129.99l-119.48,307.71c-3.64,9.37,4.04,19.24,14.02,18.01l315.2-38.76c11.73-1.44,17.54-15,10.49-24.49-94.02-79.53-158-168.62-197.24-265.58-6.22-8.37-19.22-6.62-23,3.11Z"/>
          </g>
          <g>
            <path class="cls-9" d="m1883.55,1872.37c-306.42,251.78-592.11,288.61-941.86,175.35-22.63-7.33-39.02-27.05-41.94-50.66l-1.69-13.68c-5.17-41.81,32.55-76.19,73.7-67.15,298.04,65.48,518.2,91.62,837.25-140.55,35.12-25.56,84.95-7.14,95.18,35.07h0c5.52,22.79-2.51,46.73-20.63,61.62Z"/>
            <path class="cls-9" d="m1846.17,2040.06l141.73-298.12c4.32-9.08-2.62-19.48-12.66-18.99l-317.2,15.53c-11.8.58-18.59,13.67-12.26,23.65,87.93,86.21,145.2,179.75,177.22,279.33,5.59,8.81,18.69,8.01,23.16-1.41Z"/>
          </g>
        </g>
      </g>
    </g>
  </g>
</svg>